<?xml version="1.0" standalone="no"?>
<!DOCTYPE svg PUBLIC "-//W3C//DTD SVG 20010904//EN"
 "http://www.w3.org/TR/2001/REC-SVG-20010904/DTD/svg10.dtd">
<svg version="1.0" xmlns="http://www.w3.org/2000/svg"
 width="380.000000pt" height="380.000000pt" viewBox="0 0 380.000000 380.000000"
 preserveAspectRatio="xMidYMid meet">
<metadata>
Created by potrace 1.14, written by Peter Selinger 2001-2017
</metadata>
<g transform="translate(0.000000,380.000000) scale(0.100000,-0.100000)"
fill="#000000" stroke="none">
<path d="M1981 3516 c-33 -35 -22 -65 39 -116 41 -34 50 -48 48 -69 -5 -41
-80 -42 -93 -1 -9 28 -25 25 -25 -4 0 -31 7 -35 69 -43 41 -5 52 -2 70 16 38
38 28 73 -34 127 -40 34 -55 53 -53 68 5 33 52 33 83 0 l25 -27 0 30 c0 27 -4
31 -37 37 -59 9 -68 8 -92 -18z"/>
<path d="M1603 3513 c-13 -2 -23 -9 -23 -14 0 -6 4 -8 9 -4 16 9 25 -17 37
-110 11 -87 11 -91 -10 -107 -20 -17 -19 -17 34 -11 55 6 94 23 53 23 -23 0
-33 18 -33 56 0 20 5 24 29 24 17 0 33 -5 37 -11 16 -27 100 -69 137 -69 23 0
36 4 32 10 -3 6 -15 10 -25 10 -10 0 -41 18 -69 40 -49 39 -51 42 -36 63 21
30 19 63 -5 87 -16 16 -32 20 -82 19 -35 -1 -73 -4 -85 -6z m120 -15 c9 -7 19
-25 22 -40 8 -32 -23 -68 -59 -68 -21 0 -24 5 -29 53 -2 28 -3 55 0 60 7 11
48 8 66 -5z"/>
<path d="M2222 3494 c15 -18 15 -25 -2 -102 -23 -105 -26 -112 -47 -112 -31 0
1 -18 45 -25 41 -7 43 -6 31 13 -17 28 16 188 44 207 21 15 19 16 -53 31 -34
6 -34 6 -18 -12z"/>
<path d="M1363 3443 c-40 -15 -73 -31 -73 -36 0 -5 7 -6 15 -3 17 6 39 -36 71
-138 17 -55 17 -56 -2 -71 -27 -20 -19 -19 79 14 108 37 105 35 99 66 -5 30
-22 34 -22 5 0 -20 -20 -32 -74 -46 -19 -4 -25 1 -39 37 -9 23 -16 43 -14 44
16 12 72 24 75 15 5 -13 22 -13 22 -1 0 5 -5 22 -10 36 -10 27 -10 27 -28 6
-9 -11 -29 -23 -43 -26 -24 -6 -28 -3 -39 29 -6 20 -9 40 -5 45 10 17 74 24
90 11 20 -17 25 -11 14 18 -11 28 -26 27 -116 -5z"/>
<path d="M2395 3439 c-15 -29 -9 -39 12 -18 16 16 73 1 73 -19 0 -20 -49 -152
-63 -170 -5 -7 -18 -10 -28 -7 -11 4 -19 2 -19 -3 0 -10 110 -55 117 -49 2 2
-3 10 -12 17 -20 17 -20 22 17 118 30 80 32 83 57 77 35 -9 51 -23 52 -49 1
-15 4 -12 12 12 5 18 8 34 6 35 -2 2 -50 22 -107 45 l-102 41 -15 -30z"/>
<path d="M1165 3356 c-37 -23 -38 -24 -15 -28 23 -3 26 -10 39 -81 7 -43 11
-81 8 -84 -6 -5 -121 80 -133 98 -4 6 0 15 7 20 7 4 11 11 7 14 -4 4 -28 -6
-55 -22 -42 -25 -45 -28 -24 -31 13 -2 66 -37 119 -78 85 -67 119 -84 116 -58
-1 5 -9 60 -19 123 -14 88 -16 118 -6 132 15 25 4 24 -44 -5z"/>
<path d="M2700 3331 c0 -6 5 -13 10 -16 6 -3 10 -42 10 -87 0 -65 -4 -85 -21
-110 -15 -20 -28 -28 -40 -25 -31 8 -22 -9 21 -37 49 -32 52 -32 44 -2 -3 15
1 34 10 49 22 32 148 91 178 82 19 -5 17 -1 -12 25 -37 33 -55 39 -46 15 4
-11 -9 -22 -44 -40 l-50 -25 0 60 c0 49 3 58 15 54 30 -12 14 14 -25 40 -43
28 -50 31 -50 17z"/>
<path d="M881 3164 c-32 -27 -41 -47 -17 -38 18 7 136 -137 136 -166 0 -20 1
-20 35 7 41 32 43 40 14 45 -12 2 -48 35 -82 75 -50 61 -58 75 -47 88 20 25
-6 17 -39 -11z"/>
<path d="M743 3040 c-28 -34 -28 -40 -5 -33 17 4 122 -71 122 -87 0 -8 -110
-20 -181 -20 -45 0 -62 -8 -89 -44 -14 -17 -13 -18 7 -12 18 6 37 -5 98 -56
53 -44 75 -68 71 -80 -7 -28 6 -21 37 17 l28 36 -24 -6 c-19 -5 -37 5 -87 47
l-64 53 49 7 c28 3 78 7 111 7 68 1 124 10 124 20 -1 3 -39 37 -85 76 -64 52
-83 74 -79 87 8 27 -8 21 -33 -12z"/>
<path d="M1733 3054 c-114 -19 -197 -48 -271 -96 -34 -22 -61 -43 -58 -45 2
-2 27 7 54 21 74 38 202 87 211 82 4 -3 29 1 54 9 26 8 47 12 47 10 0 -2 -30
-20 -67 -40 -38 -20 -87 -53 -110 -72 -62 -50 -53 -24 12 36 l56 50 -38 -15
c-76 -32 -178 -98 -271 -177 -73 -61 -91 -73 -77 -50 10 17 32 47 49 65 17 19
38 43 46 53 15 19 15 19 -15 1 -110 -70 -269 -224 -343 -332 -117 -173 -195
-396 -204 -579 -3 -59 -3 -59 32 -76 73 -35 73 -35 86 78 26 219 88 390 206
575 73 114 79 116 72 26 -7 -75 0 -148 14 -148 4 0 15 20 25 44 26 63 145 242
203 305 l50 54 -4 -71 c-4 -73 2 -122 16 -122 4 0 18 21 31 48 65 134 193 283
288 335 l52 27 -43 -63 c-64 -96 -143 -332 -177 -529 -6 -38 -14 -68 -18 -68
-10 0 -78 111 -109 180 l-30 65 -22 -50 c-38 -85 -89 -250 -110 -357 -12 -57
-23 -104 -24 -106 -7 -6 -86 157 -106 221 -12 37 -25 67 -30 67 -12 0 -67
-174 -89 -287 -12 -56 -24 -142 -27 -191 -6 -82 -9 -91 -31 -101 -36 -16 -56
-75 -49 -138 6 -51 5 -52 -21 -55 -39 -4 -50 -49 -29 -120 21 -74 55 -121 95
-134 28 -9 38 -21 66 -85 18 -41 43 -91 55 -111 12 -21 18 -38 13 -38 -25 0
-112 32 -116 43 -10 26 -98 135 -113 141 -28 11 -25 1 17 -59 77 -110 121
-154 174 -174 52 -20 145 -37 145 -28 0 3 -20 39 -44 79 -95 162 -148 347
-162 566 -6 95 -5 112 8 112 40 0 88 -92 88 -168 0 -46 2 -50 28 -55 90 -18
156 -159 108 -232 -13 -20 -25 -25 -56 -25 l-40 0 26 -72 c34 -95 60 -144 78
-151 8 -3 54 -9 101 -13 86 -7 87 -7 76 14 -45 85 57 138 157 82 41 -23 79
-80 67 -101 -4 -6 3 -7 19 -3 40 10 92 -4 127 -33 l32 -27 -8 206 c-5 134 -4
208 3 212 5 3 65 -46 131 -110 67 -64 123 -115 126 -113 6 6 24 236 31 394 l6
140 84 -90 c47 -50 102 -110 123 -135 l38 -45 -32 -140 c-37 -157 -82 -305
-93 -305 -4 0 -17 15 -29 33 -39 55 -121 142 -128 135 -4 -3 -15 -50 -26 -104
-31 -163 -75 -274 -124 -312 -14 -11 -22 -23 -18 -25 15 -9 125 15 146 32 68
54 102 91 139 149 l42 64 14 -41 c25 -75 2 -104 -127 -158 -53 -22 -54 -23
-16 -17 61 10 228 77 303 123 88 53 96 60 115 98 9 17 40 62 67 99 102 134
177 320 204 505 17 113 21 229 9 229 -5 -1 -37 -7 -73 -15 -91 -20 -93 -20
-64 23 24 34 26 43 21 110 -3 43 -2 72 4 72 6 0 21 11 34 25 46 45 28 155 -36
218 -33 33 -43 38 -69 32 -20 -5 -30 -3 -30 6 0 6 -25 63 -56 126 -30 64 -54
117 -52 118 2 2 30 12 63 24 54 18 61 19 70 5 26 -42 49 -66 77 -80 62 -32 62
26 -1 123 -55 85 -58 86 -116 58 -28 -14 -81 -32 -120 -42 -38 -10 -72 -18
-73 -19 -2 -2 25 -62 61 -136 118 -242 156 -395 164 -663 4 -136 1 -206 -11
-285 -16 -106 -63 -280 -76 -280 -4 0 -11 10 -17 23 -6 12 -39 63 -75 112
l-64 90 7 105 c4 58 7 124 8 146 l1 41 92 8 c51 4 96 9 100 11 3 2 -6 17 -22
32 -31 32 -54 100 -48 144 4 27 3 28 -35 28 -108 0 -166 192 -80 260 15 12 35
19 45 17 10 -3 18 0 18 7 0 19 -35 117 -66 187 l-27 60 -61 -6 c-120 -12 -127
-14 -116 -35 33 -63 -8 -140 -75 -140 -67 0 -114 39 -129 106 -6 29 -10 31
-51 30 -35 -1 -49 5 -74 28 -17 17 -31 39 -31 51 0 20 7 21 228 34 267 15 312
20 312 33 0 20 -113 159 -176 217 -69 63 -151 110 -277 160 -87 35 -132 37
-264 15z m234 -29 c20 -14 43 -39 49 -54 21 -50 96 -83 150 -66 17 5 37 -11
108 -86 63 -66 84 -94 74 -99 -7 -5 -44 -9 -82 -11 l-69 -4 -12 34 c-13 39
-54 78 -92 87 -35 9 -63 -25 -63 -75 0 -36 -1 -37 -36 -37 -29 0 -42 -7 -60
-29 l-24 -30 0 145 c0 131 8 250 16 250 2 0 20 -11 41 -25z m-145 -865 l78
-85 0 -147 0 -148 -89 0 c-48 0 -115 3 -148 6 l-60 7 4 101 c4 115 31 411 40
440 5 17 12 12 52 -34 25 -30 81 -93 123 -140z m-370 -200 c37 -47 84 -105
105 -129 l38 -43 -125 7 c-69 4 -129 10 -134 13 -9 5 -2 192 10 251 l7 35 16
-24 c9 -13 46 -63 83 -110z m1176 -757 c18 -90 8 -118 -67 -177 -77 -62 -210
-150 -217 -143 -3 2 25 33 62 68 69 67 151 182 181 255 10 24 21 44 25 44 3 0
11 -21 16 -47z"/>
<path d="M2030 3057 c3 -3 42 -17 88 -32 76 -25 145 -66 139 -84 -1 -4 44 -52
101 -106 l102 -97 46 7 c75 11 75 13 23 62 -27 25 -49 52 -49 59 0 16 28 18
64 4 44 -17 29 -4 -51 43 -92 54 -158 81 -270 112 -80 23 -203 43 -193 32z"/>
<path d="M3042 2943 c-61 -30 -83 -120 -45 -186 26 -46 99 -80 149 -71 44 8
90 49 100 88 21 84 -58 186 -143 186 -15 0 -43 -8 -61 -17z m129 -23 c24 -13
49 -61 49 -94 0 -46 -78 -116 -130 -116 -12 0 -35 13 -51 29 -51 52 -36 129
35 172 35 21 68 24 97 9z"/>
<path d="M510 2730 c-25 -48 -25 -53 -2 -39 26 17 159 -51 168 -85 12 -50 -29
-116 -73 -116 -39 0 -152 61 -155 84 -3 17 -8 13 -26 -21 -27 -52 -27 -52 -1
-46 13 4 48 -7 89 -27 54 -26 75 -31 104 -26 49 9 86 63 86 127 0 52 -17 73
-90 109 -58 29 -80 48 -73 66 11 30 -8 12 -27 -26z"/>
<path d="M3340 2677 c0 -25 -178 -111 -197 -96 -17 15 -17 0 2 -45 14 -33 41
-54 29 -22 -4 10 8 22 35 35 22 12 44 21 49 21 15 0 34 -57 27 -79 -8 -25 -3
-26 38 -4 25 13 28 18 14 21 -9 2 -26 20 -37 41 l-19 38 35 16 34 17 20 -33
c23 -37 24 -49 8 -65 -9 -9 -9 -12 2 -12 8 0 22 4 30 10 12 7 9 20 -20 82 -39
83 -50 100 -50 75z"/>
<path d="M284 1979 c-25 -28 -26 -30 -6 -20 l23 12 -3 -95 c-3 -90 -2 -96 17
-96 19 0 20 6 17 115 -2 63 -7 115 -11 115 -4 0 -20 -14 -37 -31z"/>
<path d="M445 1985 c-30 -29 -31 -35 -5 -68 l21 -26 -21 -21 c-37 -37 -19 -85
35 -96 50 -9 85 16 85 60 0 20 -8 40 -19 50 -19 17 -19 18 0 37 24 24 24 44
-1 69 -27 27 -66 25 -95 -5z m73 3 c17 -17 15 -67 -3 -74 -21 -8 -65 22 -65
44 0 22 19 42 40 42 9 0 21 -5 28 -12z m0 -124 c24 -17 29 -53 10 -72 -20 -20
-56 -14 -74 13 -15 23 -15 27 0 50 19 29 33 31 64 9z"/>
<path d="M3274 1965 c-3 -8 -4 -20 -1 -27 4 -8 6 -6 6 5 1 14 10 17 51 17 28
0 50 5 50 10 0 17 -100 12 -106 -5z"/>
<path d="M3485 1949 c-81 -72 -63 -199 29 -199 56 0 85 69 50 119 -14 20 -23
22 -55 18 -22 -3 -39 -2 -39 1 1 19 30 55 56 73 20 13 24 19 12 19 -10 0 -33
-14 -53 -31z m53 -81 c13 -13 16 -66 6 -92 -7 -19 -47 -21 -63 -3 -6 8 -14 29
-17 47 -6 26 -3 36 11 47 23 16 47 17 63 1z"/>
<path d="M3028 1923 c-11 -13 -17 -51 -21 -133 -12 -228 -104 -460 -248 -624
-22 -25 -37 -46 -32 -46 10 0 89 90 136 155 57 81 135 252 163 360 27 106 45
305 27 305 -5 0 -17 -8 -25 -17z"/>
<path d="M3271 1897 c-1 -26 1 -28 28 -22 22 5 35 1 50 -14 25 -25 27 -49 5
-79 -17 -25 -35 -28 -64 -10 -21 13 -36 6 -25 -11 14 -24 97 -7 117 23 4 6 8
28 8 48 0 44 -27 68 -76 68 -18 0 -35 6 -37 13 -3 6 -6 -1 -6 -16z"/>
<path d="M710 1263 c0 -32 -199 -158 -236 -149 l-26 7 29 -40 c27 -38 28 -39
33 -16 4 17 30 41 90 79 47 29 86 50 88 45 2 -5 -24 -59 -57 -121 -34 -61 -59
-113 -56 -116 2 -3 64 7 137 21 73 13 134 24 136 22 2 -2 -36 -35 -83 -74 -73
-60 -89 -69 -106 -61 -26 15 -24 6 11 -46 35 -50 41 -53 37 -22 -3 31 186 192
215 182 19 -6 19 -5 -3 25 -16 22 -28 29 -43 26 -83 -19 -231 -44 -235 -39 -3
3 20 54 52 114 31 59 57 114 57 121 0 8 -9 25 -20 39 -19 24 -20 24 -20 3z"/>
<path d="M3099 1237 c-33 -22 -80 -84 -128 -170 -13 -23 -18 -36 -10 -29 23
21 44 14 148 -54 86 -56 101 -70 101 -93 0 -21 9 -13 48 49 77 119 86 163 52
237 -36 80 -138 109 -211 60z m120 -32 c75 -38 105 -115 74 -186 -34 -77 -37
-77 -154 -3 -142 90 -138 85 -107 130 51 70 122 93 187 59z"/>
<path d="M1328 1044 c20 -36 127 -133 187 -169 59 -35 171 -76 204 -74 23 1
-77 46 -120 54 -36 6 -169 105 -169 125 0 9 45 7 123 -5 15 -3 40 -19 55 -36
28 -34 77 -59 116 -59 31 0 59 27 53 51 -4 16 1 19 29 19 52 0 104 32 104 65
0 1 -69 6 -152 9 -151 7 -312 20 -397 32 -40 6 -42 5 -33 -12z"/>
<path d="M2874 957 l-36 -33 27 1 c22 0 39 -14 88 -73 33 -40 58 -74 55 -77
-3 -3 -73 3 -157 12 -135 15 -155 16 -178 3 -33 -19 -42 -40 -14 -33 15 4 37
-16 100 -93 45 -53 81 -103 81 -109 0 -6 -5 -16 -12 -23 -7 -7 -9 -12 -4 -12
12 0 86 64 86 75 0 5 -5 4 -12 -3 -7 -7 -17 -12 -24 -12 -14 0 -158 169 -151
176 5 5 216 -16 320 -32 21 -3 37 -2 37 4 0 5 -39 56 -86 113 -64 78 -84 110
-81 127 5 29 3 28 -39 -11z"/>
<path d="M1091 836 c-26 -31 -249 -166 -265 -160 -28 11 -18 -1 29 -35 25 -18
45 -27 45 -22 0 6 -4 11 -9 11 -5 0 -11 6 -14 14 -4 10 11 26 44 47 l49 31 40
-26 c45 -30 46 -34 24 -99 -16 -48 -30 -57 -52 -35 -7 7 -12 8 -12 2 0 -8 83
-74 94 -74 2 0 1 10 -1 23 -4 18 27 141 73 299 7 23 -30 43 -45 24z m-14 -91
c-12 -50 -20 -54 -57 -25 -21 17 -23 22 -10 29 8 5 24 17 35 25 36 27 43 20
32 -29z"/>
<path d="M1304 691 c22 -24 21 -29 -20 -145 -41 -114 -47 -124 -77 -128 -13
-2 6 -12 49 -25 63 -21 67 -21 44 -4 l-24 19 20 49 c16 37 25 47 40 45 30 -6
39 -18 79 -98 37 -74 77 -114 116 -114 11 0 6 11 -18 38 -19 20 -48 65 -63
100 -28 59 -28 62 -9 62 29 0 69 44 69 77 -1 53 -42 87 -146 119 -68 21 -75
21 -60 5z m139 -62 c33 -35 29 -71 -11 -108 -20 -18 -33 -22 -60 -17 -20 3
-39 9 -44 14 -5 5 3 40 18 81 23 63 29 71 48 65 11 -3 33 -19 49 -35z"/>
<path d="M2419 676 c-2 -2 0 -76 4 -163 7 -143 6 -159 -10 -170 -26 -20 5 -16
52 6 38 19 39 19 12 20 -28 1 -28 1 -25 63 l3 61 43 16 44 16 41 -44 41 -44
-25 -20 c-13 -11 -19 -18 -14 -16 6 2 34 13 63 23 29 11 52 24 52 29 0 4 -5 5
-11 1 -7 -4 -57 39 -125 109 -100 104 -130 127 -145 113z m66 -92 c29 -38 26
-49 -17 -59 -28 -7 -28 -7 -28 44 0 28 4 51 9 51 5 0 21 -16 36 -36z"/>
<path d="M1651 569 c15 -13 45 -58 68 -100 33 -61 41 -87 41 -128 0 -47 -2
-51 -27 -58 -26 -7 -25 -8 17 -14 25 -4 56 -8 70 -8 l24 -1 -23 16 c-20 15
-23 23 -18 61 6 58 89 180 138 205 l34 18 -35 0 c-19 0 -46 3 -58 7 -22 5 -23
4 -12 -14 11 -17 7 -27 -25 -76 -21 -31 -42 -57 -46 -57 -5 0 -25 31 -44 70
-32 63 -33 70 -17 79 13 8 7 10 -30 11 -25 0 -55 3 -65 6 -13 4 -10 -1 8 -17z"/>
<path d="M2080 575 c-36 -7 -58 -13 -50 -14 32 -3 39 -20 59 -137 26 -148 26
-139 -1 -153 -20 -9 -20 -10 -3 -7 11 3 54 10 95 16 105 16 107 17 119 52 14
39 9 46 -9 13 -18 -33 -119 -61 -134 -37 -2 4 -12 50 -21 102 -8 52 -18 107
-21 122 -4 22 0 29 23 42 33 18 30 18 -57 1z"/>
</g>
</svg>
