<svg width="320" height="73" xmlns="http://www.w3.org/2000/svg" viewBox="0 0 320 72.97"><circle cx="491" cy="205.53" fill="#7c0303"/><path d="M99.3 9.54a3.54 3.54 0 0 0-3.51-2.34 4 4 0 0 0-4.14 4.37A4.51 4.51 0 0 0 96 16.33a4.12 4.12 0 0 0 3.72-2.3h.28a19.64 19.64 0 0 1-.94 2.27c-.94-.16-1.64.39-3.43.39-3.12 0-5.31-2-5.31-4.84 0-3 2.27-5.05 5.47-5.05a11.1 11.1 0 0 1 3.2.63c.16 0 .23-.08.31-.08h.24l.16 2.16zm10.77 7.26c-3 0-5.47-2-5.47-4.76 0-3 2.34-5.15 5.54-5.15 2.89 0 5.39 2 5.39 4.68a5.29 5.29 0 0 1-5.34 5.23h-.12zm-.31-9.6c-2.66 0-3.74 2.5-3.74 4.33 0 2.89 2 4.84 4.37 4.84s3.67-2.16 3.67-4.37c.07-2.77-1.72-4.8-4.3-4.8zm16.94 9.29h-6.79v-.31h.47c.72 0 .94-.23.94-1V8.44c0-.78-.23-1.17-1.17-1.17h-.23v-.24h4.53v.31h-.55c-1 0-1.25.08-1.25 1v7c0 .39.16.55.63.55h2.26c.94 0 1.17-.31 2.11-1.64h.35zm11.54 0h-6.8v-.31h.47c.72 0 .94-.23.94-1V8.44c0-.78-.23-1.17-1.17-1.17h-.23v-.24H136v.31h-.55c-1 0-1.25.08-1.25 1v7c0 .39.16.55.63.55h2.27c.94 0 1.17-.31 2.11-1.64h.31zm11.55-3.46h-.31c-.16-1.1-.39-1.17-1-1.17h-2.58v3.29c0 .72.23.86.86.86h2.34c1.1 0 1.41-.39 1.8-1.72h.31l-.21 2.29h-8.2v-.31h.39c1.25 0 1.41-.31 1.41-1.25V8.53c0-.86-.23-1.25-1.25-1.25H143v-.25h7.34l.16 2.11h-.31c-.23-1.33-.55-1.56-1.1-1.56h-3.2v3.75h2.71c.55 0 .78-.23.86-1.17h.31zm15.07 2.73a10 10 0 0 1-4.06.94 4.7 4.7 0 0 1-4.92-4.48v-.28a5.05 5.05 0 0 1 4.94-5.16h.37a12.27 12.27 0 0 1 3 .55c.16 0 .23 0 .31-.08h.23v2.5h-.27a2.93 2.93 0 0 0-3.12-2.54c-2.66 0-4.06 2.16-4.06 4.68 0 3.12 2.16 4.53 4 4.53a5.63 5.63 0 0 0 2.34-.55v-1.84c0-.86-.31-1.17-1.25-1.17h-.55v-.43H166v.31c-.78.08-1.1.31-1.1.94v2.11zm11.72-2.73h-.31c-.16-1.1-.39-1.17-1-1.17h-2.58v3.29c0 .72.23.86.86.86h2.34c1.1 0 1.41-.39 1.8-1.72h.31l-.23 2.27h-8.1v-.31h.33c1.25 0 1.41-.31 1.41-1.25V8.53c0-.86-.23-1.25-1.25-1.25h-.31v-.25h7.34l.16 2.11h-.31c-.23-1.33-.55-1.56-1.1-1.56h-3.2v3.75h2.73c.55 0 .78-.23.86-1.17h.31v2.87zm19 3.74c-3 0-5.47-2-5.47-4.76 0-3 2.34-5.15 5.54-5.15 2.89 0 5.39 2 5.39 4.68a5.29 5.29 0 0 1-5.34 5.23zm-.31-9.6c-2.66 0-3.74 2.5-3.74 4.33 0 2.89 2 4.84 4.37 4.84s3.67-2.16 3.67-4.37a4.41 4.41 0 0 0-4.33-4.8zm17 5.7H212c0-.86-.31-1.17-1.1-1.17h-2.8v3.33c0 .86.16 1.17 1.33 1.17v.31h-3.67v-.31c.94-.08 1.1-.23 1.1-1.49v-6c0-.94-.08-1.41-1.17-1.41v-.27h6.8v1.8h-.23c0-.86-.31-1.25-1.25-1.25h-2.89v3.61h3c.55 0 .86-.31.86-.94h.23v2.66zM92.74 27.73c0-1.56-.16-2.34-2.11-2.34h-.93v-.54l3.36-.16c1.49-.08 3.51-.08 4.06-.08 2.34 0 4.45.31 5.39 1a3.37 3.37 0 0 1-1.41 6.25v.08c2.5.78 4 2.42 4 4.53s-1.49 5.05-5.77 5.05h-9.86v-.49h.63c2.16 0 2.66-.55 2.66-2.16zM95 31.87h3c2.58 0 3.9-1 3.9-3.12 0-1.88-1.1-3.61-4.45-3.61l-2.34.08v6.64zm0 6.25c0 2 .78 2.73 3 2.73 3.51 0 4.61-2.16 4.61-4.33s-1.56-4.21-4.76-4.21H95zm24.44-2.58h-.55c-.23-1.88-.72-2.11-1.8-2.11h-4.55v5.7c0 1.25.47 1.49 1.49 1.49h4.14c1.88 0 2.42-.72 3.12-3h.47l-.47 4H107v-.59h.78c2.16 0 2.5-.63 2.5-2.16V27.58c0-1.49-.31-2.16-2.16-2.16h-.63v-.57h12.89l.23 3.74h-.47c-.31-2.27-1-2.73-2-2.73h-5.7v6.64h4.84c.94 0 1.41-.47 1.56-2h.55zm9.21-1.88v5.05c0 1.72.31 2.34 2.16 2.34h.08v.55h-6.72v-.57h.16c1.56 0 2.11-.47 2.11-2V27.34c0-1.41-.47-1.8-2-1.88v-.55h6.4v.55c-1.88 0-2.27.55-2.27 2.58v4.68h10.54v-5.28c0-1.41-.47-2-2.11-2h-.55v-.55h6.95v.55c-1.64.08-2 .55-2 2.16v11.22c0 1.88.55 2.34 2.16 2.34h.23v.47h-7.6v-.55h.85c1.72 0 2.11-.63 2.11-2v-5.49h-10.49zm21 .55l-1.56 4.21a10.63 10.63 0 0 0-.55 1.72c0 .72.72 1 2.16 1h.47v.47h-6.25v-.55c1.72 0 2-.31 2.89-2.66l4.94-13.37-.23-.63h2.34l5.62 14.91c.55 1.41 1.1 1.72 2.42 1.72v.55h-7.4v-.55h.72c1.56 0 2.11-.16 2.11-.94a2 2 0 0 0-.33-1.06l-1.8-4.92zm2.73-7.5l-2.27 6.25h4.68zm15.32 15.32l-5.86-14.52c-.72-1.72-1-2.11-2.66-2.11v-.55h7.42v.55c-2.5.08-3 .63-2.58 1.88l4.84 12 4.21-11.09a5.37 5.37 0 0 0 .47-1.64c0-.78-.72-1.1-2.5-1.1v-.55h6.25v.55c-1.41 0-2.11.63-2.73 2.34L169 42.18h-1.3zm16.4-.39h-6.56v-.55c1.64-.08 2-.55 2-2.34V27.34c0-1.49-.55-1.88-2-2v-.54h6.56v.55c-1.72 0-2.27.39-2.27 2.16v11.52c0 1.56.47 2.11 2.27 2.11zm11.71.39c-5.33 0-9.66-3.36-9.66-8.43 0-5.39 4.14-9.13 9.84-9.13 5.05 0 9.44 3.43 9.44 8.28 0 5.53-4.39 9.29-9.63 9.29zm-.55-16.87c-4.76 0-6.64 4.45-6.64 7.66 0 5 3.43 8.59 7.73 8.59s6.49-3.9 6.49-7.73c0-5-3.13-8.51-7.58-8.51zm16.16 13.71c0 1.56.63 2 2.11 2h.63v.47h-7.49v-.47h.47c1.56 0 2.11-.39 2.11-2.16V27.5c0-1.64-.47-2.11-2-2.11h-.55v-.47c.63 0 2.27-.08 3.36-.16s1.64-.08 3.36-.08c4.92 0 7.11 2 7.11 4.68A4.52 4.52 0 0 1 217 33.7a28.86 28.86 0 0 1 3 2.71l2.16 2.11a7.77 7.77 0 0 0 5.23 2.66v.47c-4.61.23-5.86-.78-8.2-3.12l-1.74-1.69a17.58 17.58 0 0 0-2.73-2.34c-.63 0-1.1.08-1.8.08a6.73 6.73 0 0 1-1.33-.08v4.43zm0-4.93a11.54 11.54 0 0 0 1.58.09c3 0 4.84-1.25 4.84-4.45 0-2.5-1.1-4.37-5.15-4.37a7.58 7.58 0 0 0-1.33.08zm21.39.31l-1.56 4.21a10.63 10.63 0 0 0-.55 1.72c0 .72.72 1 2.16 1h.47v.47h-6.25v-.55c1.72 0 2-.31 2.89-2.66l4.92-13.36-.23-.63H237l5.62 14.91c.55 1.41 1.1 1.72 2.42 1.72v.55h-7.37v-.55h.72c1.56 0 2.11-.16 2.11-.94a2 2 0 0 0-.31-1.1l-1.8-4.92zm2.76-7.53l-2.27 6.25h4.7zM257 41.63h-12v-.55h.86c1.25 0 1.72-.39 1.72-1.8V27.44c0-1.41-.47-2-2.11-2H245v-.57h7.94v.55h-1c-1.72 0-2.16.16-2.16 1.88v12.41c0 .72.31 1 1.1 1h4c1.56 0 2.11-.63 3.74-3h.47L257 41.66zm28-11.24v.47c-1.49 0-1.88.16-2.27.55-.55.55-1.88 3.28-4.06 5.77 1.49 2.27 2 3.9 3.2 3.9a4 4 0 0 0 2.11-.94l.23.47a5.4 5.4 0 0 1-3.37 1.42c-1.64 0-2.11-.63-3.61-3.36-2 2.11-4.21 3.36-6.17 3.36a4.38 4.38 0 0 1-4.34-4.41v-.07c0-2.16 1.33-3.67 4.68-5a5 5 0 0 1-1.88-3.52c0-1.88 1.49-3.12 3.67-3.12 2 0 3.43 1.1 3.43 2.58 0 1.25-1.1 2.42-3 3.43a18.15 18.15 0 0 1 4.68 4.76c1.25-1.56 3.36-4.61 3.36-5.31 0-.39-.31-.55-1.49-.55v-.47h4.76zm-12.73 10.3a6.91 6.91 0 0 0 4.76-2.42 18.07 18.07 0 0 0-5.05-5.31c-2 1.41-2.89 2.66-2.89 4.37a3.16 3.16 0 0 0 3 3.35h.22zm.73-14.21a1.77 1.77 0 0 0-1.8 2 4.21 4.21 0 0 0 2 3.2 3 3 0 0 0 1.8-2.93 2 2 0 0 0-2-2.27zM91.21 62.64a4.63 4.63 0 0 0 4.53 3.82c1.8 0 3.74-1 3.74-3.2 0-3.9-8.66-5.05-8.66-9.76 0-2.27 2-3.9 4.76-3.9 2.27 0 2.73.72 3.67.72a.56.56 0 0 0 .47-.23h.47l.47 3.43h-.47a4.81 4.81 0 0 0-4.33-3.2c-1.8 0-3 1-3 2.5 0 3.82 8.66 4.84 8.66 9.76 0 2.66-2.34 4.61-5.47 4.61a22.36 22.36 0 0 1-3.74-.72.66.66 0 0 0-.55.31h-.47l-.55-4.06h.47v-.09zm22.06 4.52c-5.31 0-9.68-3.36-9.68-8.43 0-5.39 4.14-9.13 9.84-9.13 5.05 0 9.44 3.43 9.44 8.28a9.29 9.29 0 0 1-9.59 9.28zm-.55-16.87c-4.76 0-6.64 4.45-6.64 7.66 0 5 3.43 8.59 7.73 8.59s6.49-3.9 6.49-7.73c0-5-3.13-8.51-7.58-8.51zm28.86 4.14a6.26 6.26 0 0 0-6.17-4.14c-4.53 0-7.26 3.28-7.26 7.81 0 4.84 3.51 8.43 7.58 8.43a7.06 7.06 0 0 0 6.56-4h.56a17.45 17.45 0 0 1-1.72 3.9c-1.72-.23-2.89.72-6.09.72-5.47 0-9.38-3.61-9.38-8.59 0-5.23 4.06-9 9.68-9 3.36 0 4.84 1.1 5.7 1.1.31 0 .47-.08.47-.16h.39l.23 3.9zm10 12.34H145v-.55c1.64-.08 2-.55 2-2.34v-11.4c0-1.49-.55-1.88-2-2v-.55h6.56v.55c-1.72 0-2.27.39-2.27 2.16v11.4c0 1.56.47 2.11 2.27 2.11zm7.58-7.5l-1.53 4.24a10.62 10.62 0 0 0-.55 1.72c0 .72.72 1 2.16 1h.47v.55h-6.25v-.55c1.72 0 2-.31 2.89-2.66l4.92-13.36-.23-.63h2.34L169 64.53c.55 1.41 1.1 1.72 2.42 1.72v.55H164v-.55h.72c1.56 0 2.11-.16 2.11-.94a2 2 0 0 0-.31-1.1l-1.8-4.92zm2.73-7.42l-2.27 6.25h4.68zm21.39 14.91h-12v-.55h.86c1.25 0 1.72-.39 1.72-1.8V52.56c0-1.41-.47-2-2.11-2h-.39v-.53h7.94v.54h-1c-1.72 0-2.16.16-2.16 1.88v12.37c0 .72.31 1 1.1 1h4c1.56 0 2.11-.63 3.74-3h.48zm11.52-4.13a4.63 4.63 0 0 0 4.53 3.82c1.8 0 3.74-1 3.74-3.2 0-3.9-8.66-5.05-8.66-9.76 0-2.27 2-3.9 4.76-3.9 2.27 0 2.73.72 3.67.72a.56.56 0 0 0 .47-.23h.47l.47 3.43h-.47a4.81 4.81 0 0 0-4.33-3.2c-1.8 0-3 1-3 2.5 0 3.82 8.66 4.84 8.66 9.76 0 2.66-2.34 4.61-5.47 4.61a22.36 22.36 0 0 1-3.74-.72.66.66 0 0 0-.55.31h-.47l-.55-4.06h.51v-.08zm28.34-8.2A6.26 6.26 0 0 0 217 50.3c-4.53 0-7.26 3.28-7.26 7.81 0 4.84 3.51 8.43 7.58 8.43a7.06 7.06 0 0 0 6.56-4h.53a17.45 17.45 0 0 1-1.72 3.9c-1.72-.23-2.89.72-6.09.72-5.47 0-9.38-3.61-9.38-8.59 0-5.23 4.06-9 9.68-9 3.36 0 4.84 1.1 5.7 1.1.31 0 .47-.08.47-.16h.39l.23 3.9zm10 12.34h-6.59v-.54c1.64-.08 2-.55 2-2.34V52.48c0-1.49-.55-1.88-2-2v-.55h6.56v.55c-1.72 0-2.27.39-2.27 2.16v11.4c0 1.56.47 2.11 2.27 2.11zm14.43-6.09H247c-.23-1.88-.72-2.11-1.8-2.11h-4.5v5.7c0 1.25.47 1.49 1.49 1.49h4.14c1.88 0 2.42-.72 3.12-3h.47l-.47 4h-14.29v-.55h.77c2.16 0 2.5-.63 2.5-2.16V52.64c0-1.49-.31-2.16-2.16-2.16h-.63v-.55h12.89l.23 3.74h-.47c-.31-2.27-1-2.73-2-2.73h-5.7v6.64h4.84c.94 0 1.41-.47 1.56-2h.52l.08 5.15zm22.37 6.25L256 52.32v11.55c0 2 .47 2.34 2.73 2.34v.55h-6.22v-.55h.08c1.64 0 2.16-.55 2.16-1.8V51.16a4.1 4.1 0 0 0-2.27-.72v-.55h4.21l12.65 13.2V52.48c0-1.64-.47-2-2.66-2v-.55H273v.55c-2 0-2.42.31-2.42 1.41v15h-.69zM290 54.43a6.26 6.26 0 0 0-6.17-4.14c-4.53 0-7.26 3.28-7.26 7.81 0 4.84 3.51 8.43 7.58 8.43a7.06 7.06 0 0 0 6.57-4h.55a17.45 17.45 0 0 1-1.72 3.9c-1.72-.23-2.89.72-6.09.72-5.47 0-9.38-3.61-9.38-8.59 0-5.23 4.06-9 9.68-9 3.36 0 4.84 1.1 5.7 1.1.31 0 .47-.08.47-.16h.39l.23 3.9H290zm15 6.25h-.55c-.23-1.88-.72-2.11-1.8-2.11h-4.53v5.7c0 1.25.47 1.49 1.49 1.49h4.18c1.88 0 2.42-.72 3.12-3h.47l-.47 4H292.6v-.55h.78c2.16 0 2.5-.63 2.5-2.16V52.64c0-1.49-.31-2.16-2.16-2.16h-.63v-.55h13l.23 3.74h-.47c-.31-2.27-1-2.73-2-2.73h-5.7v6.64H303c.94 0 1.41-.47 1.56-2h.55v5.15H305zm4.76 2a4.63 4.63 0 0 0 4.53 3.82c1.8 0 3.74-1 3.74-3.2 0-3.9-8.66-5.05-8.66-9.76 0-2.27 2-3.9 4.76-3.9 2.27 0 2.73.72 3.67.72a.56.56 0 0 0 .47-.23h.47l.47 3.43h-.47a4.81 4.81 0 0 0-4.33-3.2c-1.8 0-3 1-3 2.5 0 3.82 8.66 4.84 8.66 9.76 0 2.66-2.34 4.61-5.47 4.61a22.36 22.36 0 0 1-3.74-.72.66.66 0 0 0-.55.31h-.47l-.55-4.06h.47v-.13zM36.8 61.86a25.66 25.66 0 0 0 25.61-25.61c0-14.14-12-25.47-25.61-25.47a25.54 25.54 0 1 0 0 51.08z" fill="#fff"/><path d="M48.7 20.09a86.34 86.34 0 0 1-12.34.79c.07-5.12.14-8.73.22-9.88 4.76.79 9 4.18 12.12 9.09" fill="#fff"/><path d="M54.26 38.34a125.79 125.79 0 0 1-17.82 1.15c0-6.93 0-13.64.07-18.83a86.34 86.34 0 0 0 12.34-.79 37 37 0 0 1 5.41 18.47" fill="#d2232a"/><path d="M53.83 38.26c-1.3-.22-2.45-2.45-1.88-4.69-1.88 1.3-4-1.37-3.68-3.82.14-1.3 1-2.45 2.53-1.95a35.08 35.08 0 0 0-2.24-5.84c-1.3.14-2.74.29-4.26.43 1.37 2.09 0 4-1.88 3.68a2.89 2.89 0 0 1-2.31-3.36 2.32 2.32 0 0 1-3.61-2 79.88 79.88 0 0 0 12.34-.79c3.54 5.92 5.05 11 5.48 18.47l-.51-.07M23.23 55.58c-2.6-.43-4.4-1-5-1.66s-1.52-1.73-2.09-2.53A31.17 31.17 0 0 1 14 48.03a21.57 21.57 0 0 1-1.59-3.75 39.32 39.32 0 0 1-1-4 38 38 0 0 1-.29-4v-1.19c-.07 1.08 2.6 2.09 7.07 2.89v1.05c.07 6.71 1.95 12.48 5.05 16.52m13.49 6.28h-1.09a22.09 22.09 0 0 1-3.9-.51 14.92 14.92 0 0 1-8.51-5.84 74.85 74.85 0 0 0 8.51.79c1.59.07 3.17.07 4.76.07.07 3.46.14 5.48.22 5.48" fill="#fff"/><path d="M36.51 56.45c-1.59 0-3.17 0-4.76-.07a74.85 74.85 0 0 1-8.51-.8 27.89 27.89 0 0 1-4.91-16.55v-.87a90.07 90.07 0 0 0 11.62 1.08c2.16.07 4.33.14 6.49.14v.87c-.07 6.71 0 12.34.07 16.16m-.07.36c-.22.87-1.44 1.73-3.17 1 .79 1.08.14 2-1.3 1.73-1.15-.22-2.45-1.08-2.53-2-1.37-.07-2.67-.22-3.75-.36a15.48 15.48 0 0 0 3.54 3c.14-.07.36-.07 1.15.22l2.89 1.23c-.79-.14-.87-.14-1.37-.22a14.81 14.81 0 0 1-8.51-5.84 86 86 0 0 0 13.28.94c-.14 0-.14.14-.22.29" fill="#d2232a"/><path d="M23.23 55.51c-3.54-5.05-4.91-10-5-17.32 2 .65 2.53 3.61 2 5.19 1.88-.72 4.26 2.53 3.46 4.76-.36 1-1.37 1.3-2.45.65a24.43 24.43 0 0 0 2.21 5.24c1.37.22 2.81.36 4.47.51-1.3-1.66-.29-3 1.52-2.89 1.52.07 3.54 1.37 3.1 3.1 1.37-.65 3.68-.14 4 1.66-1.66 0-4.18 0-7.36-.29-2 0-4-.43-5.92-.58" fill="#fff"/><path d="M23.23 55.51c-2.89-.51-4.18-.94-5-1.66a67.46 67.46 0 0 1-1.95-2.31 1.94 1.94 0 0 0 .43.51 8.8 8.8 0 0 1-1.66-2.81c.72-.14 3 3.54 3.1 3.61a16.49 16.49 0 0 0 2.74.72 25.56 25.56 0 0 1-2.6-5.27c-1.59.79-3.61-3.39-3-5.19.14-.36.58-1.15 1.66-.29-.79-1.88-.58-4.69 1.37-4.69-.07 6.35.79 11.62 4.83 17.39" fill="#d2232a"/><path d="M54.11 42.74c.07-1.23.14-2.38.14-3.61v-.87h.07v.87c-.07 1.23-.07 2.45-.22 3.61M40.69 61.57c7-1.08 12.41-8.59 13.42-18.9v.07c-1.01 10.29-6.42 17.75-13.42 18.83m8.44-3a33.19 33.19 0 0 1-4 1.8c-.58.14-1.3.43-1.8.58a19.13 19.13 0 0 0 9.24-5.84 5.85 5.85 0 0 1-2.74 3.1 3.37 3.37 0 0 1-.72.36"/><path d="M49.86 58.26a6.53 6.53 0 0 0 2.74-3.1 25.32 25.32 0 0 0 5.92-16.81v-.87a11.64 11.64 0 0 0 2.74-1v.87a24.26 24.26 0 0 1-11.4 20.92" fill="#f3c727"/><path d="M42.21 51.62c-1.73-1.73-1.73-1.73-5.77-5.63v-6.57c2.24 0 4.4-.07 6.49-.14v.87a102.5 102.5 0 0 1-.72 11.47"/><path d="M37.81 61.86h-1.08c-.14 0-.29-6.35-.36-15.87 3.82 3.61 4.18 4 5.77 5.63-.79 6.21-2.38 10.17-4.33 10.25" fill="#f3c727"/><path d="M39 61.79c-.22 0-.51.07-.65.07h-.51c1.88-.07 3.46-4 4.4-10.25a22.16 22.16 0 0 1 3.54 4.33C44 59.41 41.63 61.5 39 61.79"/><path d="M45.74 56.03a25 25 0 0 0-3.54-4.33 87.77 87.77 0 0 0 .72-11.47v-.87c2.09-.07 4.11-.22 6-.36v.87c0 6.57-1.23 12.19-3.17 16.16" fill="#f3c727"/><path d="M46.25 59.12c.29-1 .29-1.59-.51-3.17 1.95-3.9 3.17-9.6 3.17-16.16v-.87L51 38.7c.94 1.08 2.09 2.53 3.1 4-.72 7.36-3.68 13.28-7.86 16.45"/><path d="M40.69 61.57l-.65.07a5.17 5.17 0 0 1-.94.07H39c2.67-.22 5-2.38 6.71-5.77.72 1.37.94 2 .51 3.17a11.7 11.7 0 0 1-5.56 2.45m2.7-.53l-.65.14c-1 .22-1 .22-1.59.36l-.51.07c5-.79 9.16-4.76 11.54-10.68a5.9 5.9 0 0 1 .43 4.26 18.8 18.8 0 0 1-9.22 5.85" fill="#f3c727"/><path d="M42.79 61.14c-1 .22-1 .22-1.59.36l-.51.07a11.7 11.7 0 0 0 5.56-2.45c-.58.87-1 1.23-2.89 1.88l-.58.14m9.81-6a5.71 5.71 0 0 0-.43-4.26 31.37 31.37 0 0 0 2.09-11.76v-.87a29.44 29.44 0 0 0 4.26-.87v.87a25.38 25.38 0 0 1-5.91 16.9"/><path d="M49.14 58.62a2.92 2.92 0 0 1 .65-.36l-.29.14-.36.22" fill="#f3c727"/><path d="M61.4 37.26A24.1 24.1 0 0 1 49.57 58.4l.29-.14a24.32 24.32 0 0 0 11.47-20.93v-.87l.14-.07a3.51 3.51 0 0 0-.07.87"/><path d="M52.17 50.9a20.9 20.9 0 0 0-3.61-5.34 48.62 48.62 0 0 0 .29-5.7v-.83a51.54 51.54 0 0 0 5.34-.65v.87a29.89 29.89 0 0 1-2 11.69" fill="#f3c727"/><path d="M48.56 45.56c-1.44-1.73-2.24-2.53-5.7-6.21 1.95-.07 3.54-.14 6-.43v.87a37.26 37.26 0 0 1-.29 5.77M18.33 38.2a30.34 30.34 0 0 1 .36-4.47v.07a30.17 30.17 0 0 0-.36 4.4m.36-4.4C20.2 23.19 26.34 14.24 34 11.5c-7.65 2.74-13.78 11.76-15.3 22.29M34 11.5a12.84 12.84 0 0 1 2.74-.72 17 17 0 0 0-2.74.72"/><path d="M21.43 19.03a10.1 10.1 0 0 1 3.46-4.62 25.82 25.82 0 0 1 11.83-3.61 23.28 23.28 0 0 0-15.29 8.23" fill="#f3c727"/><path d="M14.36 37.33a13.59 13.59 0 0 1-2.36-.94 27 27 0 0 1 12.84-22 12 12 0 0 0-3.48 4.64 29.89 29.89 0 0 0-7 18.33"/><path d="M36.36 39.5c-2.16 0-4.33-.07-6.49-.14h-.22a91.23 91.23 0 0 1 1-13c1.88 2.31 2.81 3.46 5.7 6.49v6.64m-5.63-13.2a19.12 19.12 0 0 1-3.17-5.92c2.38-5.05 5.63-8.59 9.16-9.6-2.53 1.44-4.76 7.58-6 15.51" fill="#f3c727"/><path d="M29.73 39.28c-2.24-.07-4.33-.22-6.21-.43a46.13 46.13 0 0 1 4-18.54 17.74 17.74 0 0 0 3.17 5.92 83.39 83.39 0 0 0-1 13.06"/><path d="M23.52 38.92l-2-.22a35.81 35.81 0 0 1-2.81-4.83c1.08-7.5 4.47-14.14 9.09-18.4a7.64 7.64 0 0 0-.22 5 44.09 44.09 0 0 0-4 18.47" fill="#f3c727"/><path d="M27.49 20.38a7.31 7.31 0 0 1 .22-5 17.23 17.23 0 0 1 9-4.62c-3.61.94-6.85 4.55-9.24 9.6m-6.42 4.76a11.8 11.8 0 0 1 .38-6.09 23 23 0 0 1 15.3-8.23 8.9 8.9 0 0 0-2.74.72c-5.48 1.95-10.1 7.07-12.92 13.64"/><path d="M27.71 15.4a6.85 6.85 0 0 1 3.6-3.37 19.67 19.67 0 0 1 5.41-1.23 16.85 16.85 0 0 0-9 4.55M18.25 38.2q-2.27-.43-3.9-.87a29.52 29.52 0 0 1 7.08-18.3 11.46 11.46 0 0 0-.36 6.13 34.14 34.14 0 0 0-2.81 13.06" fill="#f3c727"/><path d="M24.89 14.39a15.26 15.26 0 0 1 5.84-2.89 27.74 27.74 0 0 1 6-.72 25.3 25.3 0 0 0-11.83 3.61"/><path d="M12 36.39c-.51-.36-.79-.72-.79-1l.07-.87a25.36 25.36 0 0 1 19.48-23 18.43 18.43 0 0 0-5.84 2.89A26.43 26.43 0 0 0 12 36.39" fill="#f3c727"/><path d="M23.52 38.92q-2.92-.32-5.19-.65a34.14 34.14 0 0 1 2.81-13.06 22.5 22.5 0 0 0 3 7.07 39.19 39.19 0 0 0-.58 6.64"/><path d="M23.52 38.92a40.73 40.73 0 0 1 .58-6.71 52 52 0 0 0 5.63 7.14c-2.16-.14-3.68-.22-6.21-.43" fill="#f3c727"/><path d="M31.31 12.03a14.24 14.24 0 0 1 5.41-1.23 19.67 19.67 0 0 0-5.41 1.23"/><path d="M62.34 36.1a25.87 25.87 0 0 1-.79 6.42 22.06 22.06 0 0 1-2.24 5.7 25.76 25.76 0 0 1-9.74 10.17" fill="none"/><path d="M61.4 36.39c.65-.36.94-.79.94-1.15A25.77 25.77 0 0 1 49.57 58.4l.29-.14a24.1 24.1 0 0 0 11.4-20.93v-.87a.22.22 0 0 1 .14-.07v.87"/><path d="M48.85 19.87c.29-.07.51-.07.72-.14 1.44-.29 4.62-.94 4.62-1.95a12.37 12.37 0 0 1 2.38 3.1 2.16 2.16 0 0 1 .29.58 1.7 1.7 0 0 1 .14.57v.29c-.07.58-.36.58-.72.43-.07 0-.07 0-.14-.07a4.41 4.41 0 0 1-2-2.31 16.59 16.59 0 0 1-2.67.87c-.07 0-.29.07-.43.07a32.56 32.56 0 0 1 2.81 6c1.3-1.3 3.32 1.15 3.39 3.54.07 1.37-.58 2.67-1.8 2.16 1 1.88.72 4.69-1.23 5.27a35.86 35.86 0 0 0-5.34-18.4m.22-4.76c0-.07 0-.14.07-.14h.07s.22-.79 3.1 1.23a26 26 0 0 0-13-5.34 3.7 3.7 0 0 1 .72.29 1.58 1.58 0 0 1 .36.22c.36.07.72.07 1 .14l.29.14h.07a.55.55 0 0 1 .29.14h.07c.07 0 .14.07.29.14h.07l.36.14c.87.43 1.66.94 1.66 1.3-.14.07-.14.07-.58 0a33.19 33.19 0 0 1 5 4.62 24 24 0 0 0 2.81-.58 6.32 6.32 0 0 1-2.68-2.31z" fill="#d2232a"/><path d="M54.19 17.78c-.65-.58-1.23-1.15-1.88-1.66a10.22 10.22 0 0 0-2.38-1.3s-1.44-.51-.65.65a13.64 13.64 0 0 0 2.24 2c-.58.22-1.88.36-2.81.58a33.19 33.19 0 0 0-5-4.62c.36.07.43.07.58 0 0-.36-.72-.87-1.66-1.3l-.35-.1h-.07c-.07-.07-.14-.07-.29-.14h-.07l-.29-.14h-.07l-.29-.14a4.26 4.26 0 0 0-1-.14l.07.07-.07-.07h.07a1.58 1.58 0 0 0-.36-.22 3.7 3.7 0 0 0-.72-.29 17 17 0 0 0-1.8-.07h-.79l.14.07h-.22c.14 0 .29.07.51.07.43.14 1.23.36 1.88.51a20.89 20.89 0 0 1 10 8.44H49a18.76 18.76 0 0 0 4.62-1.3c.64-.47.57-.9.57-.9z" fill="#fff"/><path d="M48.77 19.87c-4.18-6.13-7.94-8-11.47-8.87.07 0 .14.07.29.07l-.51-.14c-.07 0-.07 0-.14-.07l.29.07-.36-.07h-.07l-.22-.07a5 5 0 0 0 2 1.23c-.07.29 0 .94 1.08 1.73a1.81 1.81 0 0 0 .51.29c1.66.87 2 .22 2.09-.07a16 16 0 0 1 2.6 2.38 19 19 0 0 1 1.66 2.09c-1 .14-2.38.22-3.75.36a3 3 0 0 0-2-2.74c-1.59-.58-2.16 1.3-1.44 2.67-1.3-.72-2.81-.07-3 1.95a78.27 78.27 0 0 0 12.48-.79" fill="#d2232a"/><path d="M6.06 17.2l.14.07a.72.72 0 0 0 .2 1l.16.08 2.09 1a2.25 2.25 0 0 1 .87 3.25 2.22 2.22 0 0 1-3 1.3l-2.26-1.14c-.51-.22-.65-.14-.94.36l-.15-.09 1-2 .14.07v.07c-.22.43-.22.65.29.87l2.16 1.08a1.74 1.74 0 0 0 2.53-.94 1.75 1.75 0 0 0-.79-2.6l-1.8-.87c-.72-.36-.94-.29-1.3.29l-.14-.07zm8.87-2.53l-6.42.43 2.81 2.38c.51.43.65.36 1.15-.22l.14.07-1.3 1.52-.14-.07c.36-.43.29-.65 0-.94l-3.23-2.73a1.7 1.7 0 0 0-.65.43l-.07-.07.87-1 5.84-.36-2.6-2.24c-.43-.36-.58-.29-1 .22l-.16-.06 1.3-1.52.14.07c-.43.51-.43.65-.14.87l3.68 3.1zM18 11.93l-1.59 1.37-.07-.22c.36-.36.36-.51 0-1l-2.27-2.82c-.29-.36-.51-.36-.87-.07l-.07-.16 1.59-1.37.07.14c-.43.36-.51.58-.14 1L17 11.65c.29.36.51.43 1 .07zm3.17-2l-4-3.1c-.43-.36-.58-.43-1.08-.14l-.07-.15 2-1.23.07.14c-.65.43-.72.65-.43.94L21 8.9l-.65-3.75c-.07-.29-.07-.43-.14-.51s-.22-.14-.72.14l-.07-.14 1.73-1 .07.14c-.36.22-.51.51-.36 1.08l.79 4.83zm6.28-5.05l-.14.07c-.29-.58-.43-.58-.79-.43l-1.3.43.58 1.73c.14.36.29.43.58.29l1.23-.44c.58-.22.65-.51.65-1.23l.14-.07.29 1.23-4.3 1.5-.07-.14.22-.07c.65-.22.72-.43.51-.94l-1.17-3.47c-.07-.43-.29-.58-.79-.36l-.15.05-.07-.14 3.83-1.35.43 1.08-.13.08c-.36-.65-.58-.72-.87-.65l-1.73.58.72 2 1.44-.51c.29-.07.36-.29.29-.79l.15-.05zm3.36-4.2l.43-.07C32.54.46 33 1.03 33 1.83c.14 1-.43 1.52-1.37 1.59l-.51.07zm.29 3h.43l.58-.07c.22.14.58.36.94.65l.65.51a2.89 2.89 0 0 0 2.74.72v-.2a2.89 2.89 0 0 1-1.8-.65l-.73-.61a8.11 8.11 0 0 0-1.08-.79 1.44 1.44 0 0 0 .94-1.52C33.69.89 32.9.31 31.31.53c-.58.07-.72.07-1.08.14a7.5 7.5 0 0 1-1.08.14v.15h.22c.51-.07.65.07.72.58l.43 3.61c.07.58-.07.72-.58.79h-.14v.14l2.38-.29v-.14H32c-.51.07-.72-.07-.72-.58zm6.64.51a1.4 1.4 0 0 0 1.37 1.3 1 1 0 0 0 1.23-.94c.07-1.23-2.6-1.8-2.53-3.32a1.36 1.36 0 0 1 1.54-1.2c.72.07.87.29 1.15.29.07 0 .07 0 .14-.07h.14l.07 1.08h-.14A1.62 1.62 0 0 0 39.47.17c-.58-.07-1 .22-1 .72-.09 1.38 2.66 1.95 2.53 3.54a1.52 1.52 0 0 1-1.69 1.33h-.18A3.56 3.56 0 0 1 38 5.37c-.07 0-.14 0-.14.07h-.14l-.07-1.3zm6.56 2.25l-2-.43v-.14c.51.07.65 0 .79-.58l.79-3.61c.07-.43 0-.65-.51-.72V.82l2.09.36v.14c-.51-.14-.72-.07-.87.51l-.79 3.6c-.07.51 0 .72.58.79zm4.33.59c-.14.43-.07.65.43.87l.29.14-.07.14-2.53-1 .08-.15.29.14c.51.22.72.07.87-.36l1.59-4-1.44-.58c-.29-.14-.51 0-.94.65l-.2-.04.65-1.23.14.07c0 .07 0 .07.07.14l.14.07 3.82 1.52c.14.07.22.07.29 0l.14.07-.36 1.31-.14-.07c.14-.72.07-1-.22-1.15l-1.31-.54zm8.73.58c.51-.22.43-.43 0-.79l.07-.14L59 7.74l-.07.14a1.2 1.2 0 0 0-1.3 0l-2.51 1.23-.72 1.08c-.29.36-.22.65.22.94l.07.07-.07.14-1.95-1.31.07-.14.14.07c.43.29.65.22.94-.14l.65-1 .08-2.79c0-.79-.07-1-.51-1.3l.07-.22L56 5.79l-.07.07c-.58-.36-.65-.29-.72.22v2.53zm7.07 10.25a2.2 2.2 0 0 1-3.17-.14 2.53 2.53 0 0 1 .55-3.54l.1-.07a2.24 2.24 0 0 1 3.16.12l.09.1a2.42 2.42 0 0 1-.72 3.54zm.72.51a2.84 2.84 0 0 0 .32-4 2.92 2.92 0 0 0-4-.88l-.22.16a2.87 2.87 0 0 0-.29 4.11 3 3 0 0 0 4.23.67zM67 23.76l-.07-.14a.59.59 0 0 0 .36-.87l-.65-1.44-1.66.8c-.43.22-.58.36-.29.94l-.22.14-.87-1.88.14-.07c.29.43.43.51 1 .22l3-1.44c.51-.22.72-.36.43-.94l.14-.07L70 22.47l-.94.43-.06-.14c.43-.22.58-.43.36-.94l-.72-1.44-1.8.87.72 1.52c.14.29.36.36.72.22l.07.14-1.35.64zM7 57.46l3.1-5.7-4.26 2.67c-.51.29-.36.72-.07 1.15l-.14.07-1.37-1.87.14-.14c.51.65.65.65 1.52.07l3.61-2.31c.58-.36.79-.51.36-1.08l.14-.14.97 1.37-2.92 5.41 6-1.15.94 1.3-.14.14c-.36-.43-.51-.58-.79-.36l-3.84 3.24c-.79.65-.72.72-.29 1.37l-.14.14-1.67-2.3.14-.14c.29.43.72.72 1.15.36l3.75-3.17-6.34 1.22zm10.82 6l-1.52-1.15 2.24-1.52zm-.07.51l-.58 2a1 1 0 0 1-.14.43c-.22.22-.43.14-.94-.22l-.29-.15-.14.14 2.45 1.86.14-.14c-.43-.36-.58-.58-.36-1.15l1.73-6.28-.87-.58-.07.29-4.83 3.25c-.87.58-1 .58-1.59.14l-.14.14 2 1.52.14-.14-.14-.07c-.43-.43-.65-.65-.43-.94s.43-.29.58-.43l1.52-1zm7-.14a4.6 4.6 0 0 1 .51.14c1.59.58 1.73 1.44 1.44 2.45-.43 1.23-1.37 1.44-2.53 1.08a6.81 6.81 0 0 0-.65-.22zm-1.3 3.61a3.52 3.52 0 0 0 .51.22l.72.22a6.38 6.38 0 0 1 .72 1.3l.43.94a3.61 3.61 0 0 0 2.74 2.38l.07-.22a3.15 3.15 0 0 1-1.66-1.8l-.43-1.08a9.66 9.66 0 0 0-.79-1.52 1.84 1.84 0 0 0 1.95-1.23c.36-1.08-.22-2.16-2.09-2.81l-1.3-.43a9 9 0 0 1-1.3-.43l-.07.22.22.07c.58.22.72.43.51 1.08l-1.52 4.4c-.22.72-.51.79-1.15.58l-.14-.07-.07.22 3 1 .07-.22-.22-.07c-.58-.22-.79-.43-.58-1.08l.43-1.66zm12.48-.22c.43-.58.22-.79-.51-.87v-.22l2.45.22v.22a1.68 1.68 0 0 0-1.44.72l-2.09 3-.14 1.66c-.07.58.14.87.79.87h.14v.22l-3-.29v-.22h.22c.65.07.87-.14.94-.72l.14-1.52-1.76-3.26c-.43-.87-.72-1.08-1.44-1.15v-.22l2.89.22v.15c-.87-.07-.94.14-.65.65l1.53 2.9zM45 72.11l-4.83.79v-.22l.36-.07c.51-.07.65-.29.58-.87l-.79-4.83c-.07-.58-.29-.79-1-.65h-.14v-.23l3.17-.58v.22l-.43.22c-.72.14-.87.22-.79.87l.87 5c.07.29.22.36.51.36l1.49-.31c.65-.14.79-.36 1.3-1.44h.22zm5.27-5.48l-1.73.72-.14-2.74zm.36.36L52 68.57a1.57 1.57 0 0 1 .29.36c.14.29-.07.43-.65.65l-.29.14.07.22 2.81-1.15-.14-.22c-.51.22-.79.22-1.15-.29l-4.47-4.76-.87.36.22.22.29 5.84c.07 1 0 1.15-.65 1.44l.07.22 2.31-1-.07-.22-.14.07c-.58.22-.87.22-1 0a2.22 2.22 0 0 1-.07-.72l-.07-1.88 2.09-.87zm11.78-4.26l-8.15-.94 3 3.68c.51.58.72.65 1.44 0l.14.14-2 1.59-.13-.17c.51-.43.58-.72.22-1.15l-3.46-4.18a1.5 1.5 0 0 0-.87.36l-.14-.14 1.3-1.08 7.43.87-2.82-3.38c-.43-.51-.65-.51-1.37.07v-.22l1.95-1.66.14.14c-.65.51-.65.72-.43 1.08l3.9 4.76-.14.22zm-1.59-8.51c.07-.14.22-.36.43-.79a3.66 3.66 0 0 1 2.31-1.88 3 3 0 0 1 2.45.58 3.74 3.74 0 0 1 1.52 2.09 3.22 3.22 0 0 1-.72 2.81c-.51.72-.65.65-1 .43zm4.26 3.9c.51.36.51.65.22 1.15l-.07.14.14.14 1.88-3a3.8 3.8 0 0 0-.75-5.33l-.12-.09c-1.52-1-3.46-.72-5.05 1.73l-.94 1.59s-.58 1-.79 1.37l.14.14.14-.22c.36-.58.58-.58 1.23-.22l4 2.53zm-63.49-24v4.69c0 .29.07.29.36.29h.43v.14h-2v-.21h.41c.29 0 .29-.07.29-.29v-4a7.94 7.94 0 0 1-1 .64L0 35.23a4.33 4.33 0 0 0 1.3-1.2h.29zm4.69 4a1.08 1.08 0 0 1-1 1.15h-.09a1.1 1.1 0 0 1-1.09-1.12v-.11a1.44 1.44 0 0 1 .79-1.23c1 .37 1.37.72 1.37 1.31zm.36-2.89a1.32 1.32 0 0 0-1.44-1.15 1.38 1.38 0 0 0-1.44 1.3c0 .58.36.94 1.08 1.3-.79.29-1.15.79-1.15 1.3a1.52 1.52 0 0 0 1.59 1.37 1.5 1.5 0 0 0 1.58-1.41v-.1c0-.65-.36-1.08-1.23-1.44a1.27 1.27 0 0 0 1.01-1.16zm-.51 0a1.39 1.39 0 0 1-.65 1.15c-1.08-.43-1.3-.79-1.3-1.23a1 1 0 0 1 1-.94.93.93 0 0 1 .94.92s.02.08.01.11zm60.68-.58h1.95c.14 0 .22 0 .22-.07h.14l-.12.65h-2v1.45a1.72 1.72 0 0 1 .87-.22 1.68 1.68 0 0 1 1.66 1.66 1.75 1.75 0 0 1-1.76 1.74h-.12c-.65 0-1.15-.22-1.15-.51a.31.31 0 0 1 .29-.29c.43 0 .58.58 1.08.58a1.29 1.29 0 0 0 1.08-1.37 1.23 1.23 0 0 0-1.17-1.3h-.06a1.33 1.33 0 0 0-.87.36l-.07-.07zM73 38.26c0 .94-.36 1.44-.94 1.44S71 39.27 71 37.9a.93.93 0 0 1 .07-.51 1.68 1.68 0 0 1 1.08-.51c.43.02.85.52.85 1.38zm0-3.75a3.41 3.41 0 0 0-2.74 3.17c0 1.23.72 2.09 1.66 2.09a1.62 1.62 0 0 0 1.59-1.64 1.44 1.44 0 0 0-1.37-1.51h-.07a1.65 1.65 0 0 0-1.15.51A3.1 3.1 0 0 1 73 34.58z" fill="#fff"/><path d="M36.38 32.86a83.41 83.41 0 0 1-5.7-6.49c1.23-7.94 3.46-14.07 6-15.51-.07 1.88-.22 11-.29 22"/></svg>