<svg xmlns="http://www.w3.org/2000/svg" viewBox="0 0 443.57 101.11" preserveAspectRatio="xMinYMin"><title>College of Behavioral and Social Sciences</title><path d="M137.63 13.19a4.9 4.9 0 0 0-4.87-3.25c-3.57 0-5.74 2.6-5.74 6.06 0 3.79 2.71 6.6 6 6.6a5.71 5.71 0 0 0 5.19-3.14h.43a27.22 27.22 0 0 1-1.3 3.14c-1.3-.22-2.27.54-4.76.54-4.33 0-7.36-2.81-7.36-6.71 0-4.11 3.14-7 7.58-7 2.71 0 3.79.87 4.44.87.22 0 .32-.11.43-.11h.33l.22 3zm14.93 10.06c-4.11 0-7.58-2.71-7.58-6.6 0-4.22 3.25-7.14 7.68-7.14 4 0 7.47 2.71 7.47 6.49a7.33 7.33 0 0 1-7.56 7.25zm-.43-13.31c-3.68 0-5.19 3.46-5.19 6 0 4 2.71 6.71 6.06 6.71s5.09-3 5.09-6.06c.1-3.84-2.39-6.65-5.96-6.65zm23.48 12.88h-9.41v-.43h.65c1 0 1.3-.32 1.3-1.41v-9.31c0-1.08-.32-1.62-1.62-1.62h-.32v-.33h6.28v.43h-.76c-1.41 0-1.73.11-1.73 1.41v9.74c0 .54.22.76.87.76H174c1.3 0 1.62-.43 2.92-2.27h.43zm16 0h-9.42v-.43h.65c1 0 1.3-.32 1.3-1.41v-9.31c0-1.08-.32-1.62-1.62-1.62h-.32v-.33h6.28v.43h-.76c-1.41 0-1.73.11-1.73 1.41v9.74c0 .54.22.76.87.76H190c1.3 0 1.62-.43 2.92-2.27h.43zm16-4.76h-.43c-.22-1.52-.54-1.62-1.41-1.62h-3.57V21c0 1 .32 1.19 1.19 1.19h3.25c1.52 0 1.95-.54 2.49-2.38h.43l-.32 3.14h-11.33v-.43h.54c1.73 0 1.95-.43 1.95-1.73v-9c0-1.19-.32-1.73-1.73-1.73h-.43v-.34h10.17l.22 2.92h-.43c-.32-1.84-.76-2.16-1.52-2.16h-4.44v5.19H206c.76 0 1.08-.32 1.19-1.62h.43zm20.89 3.79a13.82 13.82 0 0 1-5.63 1.3 6.52 6.52 0 0 1-6.82-6.6 7 7 0 0 1 7.36-7.14 17 17 0 0 1 4.22.76c.22 0 .32 0 .43-.11h.32v3.46H228a4.06 4.06 0 0 0-4.33-3.52c-3.68 0-5.63 3-5.63 6.49 0 4.33 3 6.28 5.52 6.28a7.8 7.8 0 0 0 3.25-.76v-2.65c0-1.19-.43-1.62-1.73-1.62h-.76v-.54h5.74v.43c-1.08.11-1.52.43-1.52 1.3v2.92zm16.23-3.79h-.43c-.22-1.52-.54-1.62-1.41-1.62h-3.57V21c0 1 .32 1.19 1.19 1.19h3.25c1.52 0 1.95-.54 2.49-2.38h.43l-.32 3.14h-11.22v-.43h.54c1.73 0 1.95-.43 1.95-1.73v-9c0-1.19-.32-1.73-1.73-1.73h-.43v-.34h10.17l.22 2.92h-.43c-.32-1.84-.76-2.16-1.52-2.16h-4.44v5.19h3.79c.76 0 1.08-.32 1.19-1.62h.43v4zM271 23.25c-4.11 0-7.58-2.71-7.58-6.6 0-4.22 3.25-7.14 7.68-7.14 4 0 7.47 2.71 7.47 6.49a7.33 7.33 0 0 1-7.57 7.25zm-.43-13.31c-3.68 0-5.19 3.46-5.19 6 0 4 2.71 6.71 6.06 6.71s5.09-3 5.09-6.06c.06-3.84-2.53-6.65-6-6.65zm23.59 7.9h-.32c0-1.19-.43-1.62-1.52-1.62h-3.9v4.65c0 1.19.22 1.62 1.84 1.62v.43h-5.09v-.43c1.3-.11 1.52-.32 1.52-2.06v-8.32c0-1.3-.11-1.95-1.62-1.95v-.44h9.42v2.49h-.32c0-1.19-.43-1.73-1.73-1.73h-4v5h4.22c.76 0 1.19-.43 1.19-1.3h.32v3.68zM128.54 38.4c0-2.16-.22-3.25-2.92-3.25h-1.3v-.75l4.65-.22c2.06-.11 4.87-.11 5.63-.11 3.25 0 6.17.43 7.47 1.41a4.67 4.67 0 0 1-1.95 8.66v.11c3.46 1.08 5.52 3.35 5.52 6.28s-2.06 7-8 7H124v-.73h.87c3 0 3.68-.76 3.68-3zm3.14 5.74h4.11c3.57 0 5.41-1.41 5.41-4.33 0-2.6-1.52-5-6.17-5l-3.25.11v9.2zm0 8.66c0 2.81 1.08 3.79 4.22 3.79 4.87 0 6.39-3 6.39-6s-2.16-5.84-6.6-5.84h-4zm33.87-3.57h-.76c-.32-2.6-1-2.92-2.49-2.92H156v7.9c0 1.73.65 2.06 2.06 2.06h5.74c2.6 0 3.35-1 4.33-4.22h.65l-.65 5.52h-19.8v-.77h1.08c3 0 3.46-.87 3.46-3V38.19c0-2.06-.43-3-3-3H149v-.79h17.86l.32 5.19h-.65c-.43-3.14-1.41-3.79-2.71-3.79h-7.9V45h6.71c1.3 0 1.95-.65 2.16-2.81h.76zm12.77-2.6v7c0 2.38.43 3.25 3 3.25h.11v.76h-9.31v-.76h.22c2.16 0 2.92-.65 2.92-2.71V37.86c0-1.95-.65-2.49-2.71-2.6v-.76h8.87v.76c-2.6 0-3.14.76-3.14 3.57v6.49h14.61V38c0-1.95-.65-2.71-2.92-2.71h-.76v-.76h9.63v.76c-2.27.11-2.81.76-2.81 3v15.48c0 2.6.76 3.25 3 3.25h.32v.65h-10.53v-.76H190c2.38 0 2.92-.87 2.92-2.81v-7.58h-14.6zm29.11.76l-2.16 5.84a14.73 14.73 0 0 0-.76 2.38c0 1 1 1.41 3 1.41h.65v.65h-8.66v-.76c2.38 0 2.81-.43 4-3.68l6.82-18.51-.32-.87h3.25l7.79 20.67c.76 1.95 1.52 2.38 3.35 2.38v.76h-10.25v-.76h1c2.16 0 2.92-.22 2.92-1.3a2.8 2.8 0 0 0-.43-1.52l-2.49-6.82zM211.22 37l-3.14 8.66h6.49zm21.21 21.21l-8.12-20.13c-1-2.38-1.41-2.92-3.68-2.92v-.76h10.28v.76c-3.46.11-4.22.87-3.57 2.6l6.71 16.67 5.84-15.37a7.44 7.44 0 0 0 .65-2.27c0-1.08-1-1.52-3.46-1.52v-.76h8.66v.76c-1.95 0-2.92.87-3.79 3.25l-7.68 19.91h-1.84zm22.73-.54h-9.09v-.76c2.27-.11 2.81-.76 2.81-3.25v-15.8c0-2.06-.76-2.6-2.81-2.71v-.75h9.09v.76c-2.38 0-3.14.54-3.14 3V54c0 2.16.65 2.92 3.14 2.92zm16.23.54C264 58.21 258 53.55 258 46.52c0-7.47 5.74-12.66 13.64-12.66 7 0 13.09 4.76 13.09 11.47-.03 7.67-6.09 12.88-13.34 12.88zm-.76-23.38c-6.6 0-9.2 6.17-9.2 10.61 0 6.93 4.76 11.9 10.71 11.9s9-5.41 9-10.71c-.01-6.93-4.34-11.8-10.5-11.8zm22.4 19c0 2.16.87 2.71 2.92 2.71h.87v.65h-10.38v-.65h.65c2.16 0 2.92-.54 2.92-3V38.08c0-2.27-.65-2.92-2.71-2.92h-.76v-.65c.87 0 3.14-.11 4.65-.22s2.27-.11 4.65-.11c6.82 0 9.85 2.81 9.85 6.49a6.26 6.26 0 0 1-4.87 6 40 40 0 0 1 4.18 3.75l3 2.92c2.16 2.16 4.44 3.57 7.25 3.68v.65c-6.39.32-8.12-1.08-11.36-4.33L301.48 51a24.37 24.37 0 0 0-3.79-3.25c-.87 0-1.52.11-2.49.11a9.33 9.33 0 0 1-1.84-.11v6.17zM293 47a16 16 0 0 0 2.27.11c4.11 0 6.71-1.73 6.71-6.17 0-3.46-1.52-6.06-7.14-6.06a10.5 10.5 0 0 0-1.84.11zm29.65.43l-2.16 5.84a14.73 14.73 0 0 0-.76 2.38c0 1 1 1.41 3 1.41h.65v.65h-8.66v-.76c2.38 0 2.81-.43 4-3.68l6.82-18.51-.32-.87h3.25l7.79 20.67c.76 1.95 1.52 2.38 3.35 2.38v.76H329.4v-.76h1c2.16 0 2.92-.22 2.92-1.3a2.8 2.8 0 0 0-.43-1.52l-2.49-6.82zM326.48 37l-3.14 8.66h6.49zm29.65 20.67h-16.67v-.76h1.19c1.73 0 2.38-.54 2.38-2.49V38c0-1.95-.65-2.81-2.92-2.81h-.54v-.79h11v.76h-1.37c-2.38 0-3 .22-3 2.6V55c0 1 .43 1.41 1.52 1.41h5.52c2.16 0 2.92-.87 5.19-4.11h.65l-2.92 5.41zm38.74-15.58v.65c-2.06 0-2.6.22-3.14.76-.76.76-2.6 4.55-5.63 8 2.06 3.14 2.71 5.41 4.44 5.41a5.49 5.49 0 0 0 2.92-1.3l.32.65a7.48 7.48 0 0 1-4.55 1.95c-2.27 0-2.92-.87-5-4.65-2.71 2.92-5.84 4.65-8.55 4.65a6.07 6.07 0 0 1-6.02-6.21c0-3 1.84-5.09 6.49-6.93a6.87 6.87 0 0 1-2.6-4.87c0-2.6 2.06-4.33 5.09-4.33 2.71 0 4.76 1.52 4.76 3.57 0 1.73-1.52 3.35-4.22 4.76a25.16 25.16 0 0 1 6.49 6.6c1.73-2.16 4.65-6.39 4.65-7.36 0-.54-.43-.76-2.06-.76v-.65h6.6zm-17.64 14.28a9.58 9.58 0 0 0 6.6-3.35 25.05 25.05 0 0 0-7-7.36c-2.81 1.95-4 3.68-4 6.06a4.38 4.38 0 0 0 4.44 4.65zm1.19-19.7a2.45 2.45 0 0 0-2.49 2.71c0 1.52 1 3.14 2.81 4.44a4.11 4.11 0 0 0 2.38-4c.01-1.96-1.12-3.15-2.7-3.15zm-252 50.11a6.42 6.42 0 0 0 6.28 5.3c2.49 0 5.19-1.41 5.19-4.44 0-5.41-12-7-12-13.53 0-3.14 2.81-5.41 6.6-5.41 3.14 0 3.79 1 5.09 1a.77.77 0 0 0 .65-.32h.65l.65 4.76h-.65a6.66 6.66 0 0 0-6-4.44c-2.49 0-4.22 1.41-4.22 3.46 0 5.3 12 6.71 12 13.53 0 3.68-3.25 6.39-7.58 6.39-2.06 0-4.65-1-5.19-1a.91.91 0 0 0-.76.43h-.65l-.76-5.63h.65v-.11zM157 93.05c-7.36 0-13.42-4.65-13.42-11.69 0-7.47 5.74-12.66 13.64-12.66 7 0 13.09 4.76 13.09 11.47 0 7.58-6.06 12.88-13.31 12.88zm-.76-23.38c-6.6 0-9.2 6.17-9.2 10.61 0 6.93 4.76 11.9 10.71 11.9s9-5.41 9-10.71c-.01-6.92-4.34-11.79-10.5-11.79zm40 5.74a8.68 8.68 0 0 0-8.55-5.74c-6.28 0-10.06 4.55-10.06 10.82 0 6.71 4.87 11.69 10.5 11.69a9.79 9.79 0 0 0 9.09-5.52h.78a24.19 24.19 0 0 1-2.38 5.41c-2.38-.32-4 1-8.44 1-7.58 0-13-5-13-11.9 0-7.25 5.63-12.45 13.42-12.45 4.65 0 6.71 1.52 7.9 1.52.43 0 .65-.11.65-.22h.54l.32 5.41zm13.85 17.1H201v-.76c2.27-.11 2.81-.76 2.81-3.25V72.71c0-2.06-.76-2.6-2.81-2.71v-.76h9.09V70c-2.38 0-3.14.54-3.14 3v15.8c0 2.16.65 2.92 3.14 2.92zm10.5-10.39L218.47 88a14.72 14.72 0 0 0-.76 2.38c0 1 1 1.41 3 1.41h.65v.76h-8.66v-.76c2.38 0 2.81-.43 4-3.68l6.82-18.51-.32-.87h3.25l7.79 20.67c.76 1.95 1.52 2.38 3.35 2.38v.76h-10.24v-.76h1c2.16 0 2.92-.22 2.92-1.3a2.8 2.8 0 0 0-.43-1.52l-2.49-6.82zm3.79-10.28l-3.14 8.66h6.49zm29.65 20.67h-16.62v-.76h1.19c1.73 0 2.38-.54 2.38-2.49V72.82c0-1.95-.65-2.81-2.92-2.81h-.54v-.76h11V70h-1.41c-2.38 0-3 .22-3 2.6v17.21c0 1 .43 1.41 1.52 1.41h5.52c2.16 0 2.92-.87 5.19-4.11h.66zM270 86.78a6.42 6.42 0 0 0 6.28 5.3c2.49 0 5.19-1.41 5.19-4.44 0-5.41-12-7-12-13.53 0-3.14 2.81-5.41 6.6-5.41 3.14 0 3.79 1 5.09 1a.77.77 0 0 0 .65-.32h.65l.65 4.76h-.65a6.66 6.66 0 0 0-6-4.44c-2.49 0-4.22 1.41-4.22 3.46 0 5.3 12 6.71 12 13.53 0 3.68-3.25 6.39-7.58 6.39-2.06 0-4.65-1-5.19-1a.91.91 0 0 0-.76.43h-.65l-.76-5.63h.7v-.11zm39.28-11.36a8.68 8.68 0 0 0-8.55-5.74c-6.28 0-10.06 4.55-10.06 10.82 0 6.71 4.87 11.69 10.5 11.69a9.79 9.79 0 0 0 9.09-5.52h.74a24.19 24.19 0 0 1-2.38 5.41c-2.38-.32-4 1-8.44 1-7.58 0-13-5-13-11.9 0-7.25 5.63-12.45 13.42-12.45 4.65 0 6.71 1.52 7.9 1.52.43 0 .65-.11.65-.22h.54l.32 5.41zm13.85 17.1H314v-.76c2.27-.11 2.81-.76 2.81-3.25v-15.8c0-2.06-.76-2.6-2.81-2.71v-.76h9.09V70c-2.38 0-3.14.54-3.14 3v15.8c0 2.16.65 2.92 3.14 2.92zm20-8.44h-.76c-.32-2.6-1-2.92-2.49-2.92h-6.28v7.9c0 1.73.65 2.06 2.06 2.06h5.74c2.6 0 3.35-1 4.33-4.22h.65l-.65 5.52h-19.8v-.76H327c3 0 3.46-.87 3.46-3V72.93c0-2.06-.43-3-3-3h-.87v-.76h17.86l.32 5.19h-.65c-.43-3.14-1.41-3.79-2.81-3.79h-7.9v9.2h6.71c1.3 0 1.95-.65 2.16-2.81h.72l.11 7.14zm31 8.66l-19.3-20.25v16c0 2.71.65 3.25 3.79 3.25v.76H350v-.76h.11c2.27 0 3-.76 3-2.49V70.87a5.68 5.68 0 0 0-3.14-1v-.76h5.84l17.53 18.29V72.71c0-2.27-.65-2.71-3.68-2.71v-.76h8.77V70c-2.81 0-3.35.43-3.35 1.95v20.78h-1zM402 75.41a8.68 8.68 0 0 0-8.55-5.74c-6.28 0-10.06 4.55-10.06 10.82 0 6.71 4.87 11.69 10.5 11.69a9.79 9.79 0 0 0 9.11-5.51h.76a24.19 24.19 0 0 1-2.38 5.41c-2.38-.32-4 1-8.44 1-7.58 0-13-5-13-11.9 0-7.25 5.63-12.45 13.42-12.45 4.65 0 6.71 1.52 7.9 1.52.43 0 .65-.11.65-.22h.54l.32 5.41H402zm20.67 8.66h-.76c-.32-2.6-1-2.92-2.49-2.92h-6.28v7.9c0 1.73.65 2.06 2.06 2.06h5.8c2.6 0 3.35-1 4.33-4.22h.65l-.65 5.52h-19.8v-.76h1.08c3 0 3.46-.87 3.46-3V72.93c0-2.06-.43-3-3-3h-.87v-.76h18l.32 5.19h-.65c-.43-3.14-1.41-3.79-2.71-3.79h-7.9v9.2h6.71c1.3 0 1.95-.65 2.16-2.81h.76v7.14h-.11zm6.6 2.71a6.42 6.42 0 0 0 6.28 5.3c2.49 0 5.19-1.41 5.19-4.44 0-5.41-12-7-12-13.53 0-3.14 2.81-5.41 6.6-5.41 3.14 0 3.79 1 5.09 1a.77.77 0 0 0 .65-.32h.65l.65 4.76h-.65a6.66 6.66 0 0 0-6-4.44c-2.49 0-4.22 1.41-4.22 3.46 0 5.3 12 6.71 12 13.53 0 3.68-3.25 6.39-7.58 6.39-2.06 0-4.65-1-5.19-1a.91.91 0 0 0-.76.43h-.65l-.76-5.63h.65v-.11z"/><path d="M51 85.71a35.57 35.57 0 0 0 35.5-35.5c0-19.6-16.6-35.3-35.5-35.3a35.4 35.4 0 1 0 0 70.8z" fill="#fff"/><path d="M67.5 27.81a119.67 119.67 0 0 1-17.1 1.1c.1-7.1.2-12.1.3-13.7 6.6 1.1 12.5 5.8 16.8 12.6" fill="#fff"/><path d="M75.2 53.11a174.34 174.34 0 0 1-24.7 1.6c0-9.6 0-18.9.1-26.1a119.67 119.67 0 0 0 17.1-1.1 51.34 51.34 0 0 1 7.5 25.6" fill="#d2232a"/><path d="M74.6 53c-1.8-.3-3.4-3.4-2.6-6.5-2.6 1.8-5.5-1.9-5.1-5.3.2-1.8 1.4-3.4 3.5-2.7a48.62 48.62 0 0 0-3.1-8.1c-1.8.2-3.8.4-5.9.6 1.9 2.9 0 5.5-2.6 5.1a4 4 0 0 1-3.2-4.7c-1.5 1.1-4.7.7-5-2.8a110.71 110.71 0 0 0 17.1-1.1c4.9 8.2 7 15.3 7.6 25.6l-.7-.1M32.2 77c-3.6-.6-6.1-1.4-6.9-2.3s-2.1-2.4-2.9-3.5a43.2 43.2 0 0 1-3-4.7 29.9 29.9 0 0 1-2.2-5.2 54.5 54.5 0 0 1-1.4-5.6 52.7 52.7 0 0 1-.4-5.6v-1.5c-.1 1.5 3.6 2.9 9.8 4v1.5c.1 9.3 2.7 17.3 7 22.9m18.7 8.7h-1.5A30.62 30.62 0 0 1 44 85a20.68 20.68 0 0 1-11.8-8.1A103.74 103.74 0 0 0 44 78c2.2.1 4.4.1 6.6.1.1 4.8.2 7.6.3 7.6" fill="#fff"/><path d="M50.6 78.21c-2.2 0-4.4 0-6.6-.1A103.74 103.74 0 0 1 32.2 77c-4.2-5.7-6.8-13.7-6.8-22.9v-1.2a124.83 124.83 0 0 0 16.1 1.5c3 .1 6 .2 9 .2v1.2c-.1 9.3 0 17.1.1 22.4m-.1.5c-.3 1.2-2 2.4-4.4 1.4 1.1 1.5.2 2.8-1.8 2.4-1.6-.3-3.4-1.5-3.5-2.8-1.9-.1-3.7-.3-5.2-.5a21.45 21.45 0 0 0 4.9 4.2c.2-.1.5-.1 1.6.3l4 1.7c-1.1-.2-1.2-.2-1.9-.3A20.52 20.52 0 0 1 32.4 77a119.25 119.25 0 0 0 18.4 1.3c-.2 0-.2.2-.3.4" fill="#d2232a"/><path d="M32.2 76.91c-4.9-7-6.8-13.8-6.9-24 2.8.9 3.5 5 2.8 7.2 2.6-1 5.9 3.5 4.8 6.6-.5 1.4-1.9 1.8-3.4.9a33.86 33.86 0 0 0 3 7.2c1.9.3 3.9.5 6.2.7-1.8-2.3-.4-4.1 2.1-4 2.1.1 4.9 1.9 4.3 4.3 1.9-.9 5.1-.2 5.5 2.3-2.3 0-5.8 0-10.2-.4-2.8 0-5.5-.6-8.2-.8" fill="#fff"/><path d="M32.2 76.91c-4-.7-5.8-1.3-6.9-2.3-.8-.9-1.9-2.2-2.7-3.2a2.69 2.69 0 0 0 .6.7c-.4-.5-2.2-2.8-2.3-3.9 1-.2 4.2 4.9 4.3 5a22.85 22.85 0 0 0 3.8 1 35.42 35.42 0 0 1-3.6-7.3c-2.2 1.1-5-4.7-4.1-7.2.2-.5.8-1.6 2.3-.4-1.1-2.6-.8-6.5 1.9-6.5-.1 8.8 1.1 16.1 6.7 24.1" fill="#d2232a"/><path d="M75 59.21c.1-1.7.2-3.3.2-5V53h.1v1.2c-.1 1.7-.1 3.4-.3 5M56.4 85.31c9.7-1.5 17.2-11.9 18.6-26.2v.1c-1.4 14.2-8.9 24.6-18.6 26.1m11.7-4.1a46 46 0 0 1-5.5 2.5c-.8.2-1.8.6-2.5.8a26.51 26.51 0 0 0 12.8-8.1c-.7 1.6-1.2 2.6-3.8 4.3a4.67 4.67 0 0 1-1 .5"/><path d="M69.1 80.71c2.1-1.5 3-2.4 3.8-4.3 5.1-5.8 8.2-14 8.2-23.3v-1.2a16.13 16.13 0 0 0 3.8-1.4v1.2a33.62 33.62 0 0 1-15.8 29" fill="#f3c727"/><path d="M58.5 71.51c-2.4-2.4-2.4-2.4-8-7.8v-9.1c3.1 0 6.1-.1 9-.2v1.2a142.06 142.06 0 0 1-1 15.9"/><path d="M52.4 85.71h-1.5c-.2 0-.4-8.8-.5-22 5.3 5 5.8 5.6 8 7.8-1.1 8.6-3.3 14.1-6 14.2" fill="#f3c727"/><path d="M54.1 85.61c-.3 0-.7.1-.9.1h-.7c2.6-.1 4.8-5.5 6.1-14.2a30.71 30.71 0 0 1 4.9 6c-2.5 4.8-5.8 7.7-9.4 8.1"/><path d="M63.4 77.61a34.63 34.63 0 0 0-4.9-6 121.64 121.64 0 0 0 1-15.9v-1.2c2.9-.1 5.7-.3 8.3-.5v1.2c0 9.1-1.7 16.9-4.4 22.4" fill="#f3c727"/><path d="M64.1 81.91c.4-1.4.4-2.2-.7-4.4 2.7-5.4 4.4-13.3 4.4-22.4v-1.2l2.9-.3c1.3 1.5 2.9 3.5 4.3 5.5-1 10.2-5.1 18.4-10.9 22.8"/><path d="M56.4 85.31l-.9.1a7.17 7.17 0 0 1-1.3.1h-.1c3.7-.3 6.9-3.3 9.3-8 1 1.9 1.3 2.8.7 4.4a16.21 16.21 0 0 1-7.7 3.4m3.7-.8l-.9.2c-1.4.3-1.4.3-2.2.5l-.7.1c6.9-1.1 12.7-6.6 16-14.8.9 2.4 1.2 3.6.6 5.9a26.06 26.06 0 0 1-12.8 8.1" fill="#f3c727"/><path d="M59.3 84.71c-1.4.3-1.4.3-2.2.5l-.7.1a16.21 16.21 0 0 0 7.7-3.4c-.8 1.2-1.4 1.7-4 2.6l-.8.2m13.6-8.3c.5-2 .5-3.2-.6-5.9a43.48 43.48 0 0 0 2.9-16.3V53a40.8 40.8 0 0 0 5.9-1.2V53c0 9.4-3.1 17.6-8.2 23.4"/><path d="M68.1 81.21a4.05 4.05 0 0 1 .9-.5l-.4.2-.5.3" fill="#f3c727"/><path d="M85.1 51.61c0 12.7-6.5 23.6-16.4 29.3l.4-.2a33.71 33.71 0 0 0 15.9-29v-1.2l.2-.1a4.87 4.87 0 0 0-.1 1.2"/><path d="M72.3 70.51c-1.2-2.6-2.1-3.9-5-7.4a67.38 67.38 0 0 0 .4-7.9V54a71.43 71.43 0 0 0 7.4-.9v1.2a41.43 41.43 0 0 1-2.8 16.2" fill="#f3c727"/><path d="M67.3 63.11c-2-2.4-3.1-3.5-7.9-8.6 2.7-.1 4.9-.2 8.3-.6v1.2a51.64 51.64 0 0 1-.4 8m-41.9-10.2a42.05 42.05 0 0 1 .5-6.2v.1a41.82 41.82 0 0 0-.5 6.1m.5-6.1c2.1-14.7 10.6-27.1 21.2-30.9-10.6 3.8-19.1 16.3-21.2 30.9m21.2-30.9a17.79 17.79 0 0 1 3.8-1 23.55 23.55 0 0 0-3.8 1"/><path d="M29.7 26.31a14 14 0 0 1 4.8-6.4 35.78 35.78 0 0 1 16.4-5 32.26 32.26 0 0 0-21.2 11.4" fill="#f3c727"/><path d="M19.9 51.71a18.84 18.84 0 0 1-3.3-1.3 37.36 37.36 0 0 1 17.8-30.5 16.65 16.65 0 0 0-4.8 6.4 41.42 41.42 0 0 0-9.7 25.4"/><path d="M50.4 54.71c-3 0-6-.1-9-.2h-.3a126.44 126.44 0 0 1 1.4-18c2.6 3.2 3.9 4.8 7.9 9v9.2m-7.8-18.3c-2.4-3.4-3.4-5.1-4.4-8.2 3.3-7 7.8-11.9 12.7-13.3-3.5 2-6.6 10.5-8.3 21.5" fill="#f3c727"/><path d="M41.2 54.41c-3.1-.1-6-.3-8.6-.6a63.94 63.94 0 0 1 5.6-25.7 24.59 24.59 0 0 0 4.4 8.2 115.58 115.58 0 0 0-1.4 18.1"/><path d="M32.6 53.91l-2.8-.3a49.63 49.63 0 0 1-3.9-6.7c1.5-10.4 6.2-19.6 12.6-25.5a10.59 10.59 0 0 0-.3 6.9 61.11 61.11 0 0 0-5.6 25.6" fill="#f3c727"/><path d="M38.1 28.21c-.6-2.9-.7-4.4.3-6.9a23.88 23.88 0 0 1 12.5-6.4c-5 1.3-9.5 6.3-12.8 13.3m-8.9 6.6a16.36 16.36 0 0 1 .5-8.5c5.5-6.4 13-10.7 21.2-11.4a12.34 12.34 0 0 0-3.8 1c-7.6 2.7-14 9.8-17.9 18.9"/><path d="M38.4 21.31c1.2-2.1 2-3.1 5-4.6A27.26 27.26 0 0 1 50.9 15a23.35 23.35 0 0 0-12.5 6.3M25.3 52.91q-3.15-.6-5.4-1.2a40.92 40.92 0 0 1 9.8-25.4 15.88 15.88 0 0 0-.5 8.5 47.32 47.32 0 0 0-3.9 18.1" fill="#f3c727"/><path d="M34.5 19.91a21.15 21.15 0 0 1 8.1-4 38.45 38.45 0 0 1 8.3-1 35.06 35.06 0 0 0-16.4 5"/><path d="M16.6 50.41c-.7-.5-1.1-1-1.1-1.4l.1-1.2A35.15 35.15 0 0 1 42.6 16a25.54 25.54 0 0 0-8.1 4 36.63 36.63 0 0 0-17.9 30.4" fill="#f3c727"/><path d="M32.6 53.91q-4.05-.45-7.2-.9a47.32 47.32 0 0 1 3.9-18.1 31.18 31.18 0 0 0 4.1 9.8 54.31 54.31 0 0 0-.8 9.2"/><path d="M32.6 53.91a56.45 56.45 0 0 1 .8-9.3 72 72 0 0 0 7.8 9.9c-3-.2-5.1-.3-8.6-.6" fill="#f3c727"/><path d="M43.4 16.61a19.74 19.74 0 0 1 7.5-1.7 27.26 27.26 0 0 0-7.5 1.7"/><path d="M86.4 50a35.86 35.86 0 0 1-1.1 8.9 30.58 30.58 0 0 1-3.1 7.9 35.7 35.7 0 0 1-13.5 14.1" fill="none"/><path d="M85.1 50.41c.9-.5 1.3-1.1 1.3-1.6a35.72 35.72 0 0 1-17.7 32.1l.4-.2a33.4 33.4 0 0 0 15.8-29v-1.2a.31.31 0 0 1 .2-.1v1.2"/><path d="M67.7 27.51c.4-.1.7-.1 1-.2 2-.4 6.4-1.3 6.4-2.7a17.14 17.14 0 0 1 3.3 4.3 3 3 0 0 1 .4.8 2.35 2.35 0 0 1 .2.8v.4c-.1.8-.5.8-1 .6-.1 0-.1 0-.2-.1a6.11 6.11 0 0 1-2.8-3.2 23 23 0 0 1-3.7 1.2c-.1 0-.4.1-.6.1a45.13 45.13 0 0 1 3.9 8.3c1.8-1.8 4.6 1.6 4.7 4.9.1 1.9-.8 3.7-2.5 3 1.4 2.6 1 6.5-1.7 7.3-.4-8.6-1.8-16.2-7.4-25.5M68 20.91c0-.1 0-.2.1-.2h.1s.3-1.1 4.3 1.7a36 36 0 0 0-18-7.4 5.13 5.13 0 0 1 1 .4 2.19 2.19 0 0 1 .5.3c.5.1 1 .1 1.4.2l.4.2h.1a.76.76 0 0 1 .4.2h.1c.1 0 .2.1.4.2h.1l.5.2c1.2.6 2.3 1.3 2.3 1.8-.2.1-.2.1-.8 0a46 46 0 0 1 6.9 6.4 33.33 33.33 0 0 0 3.9-.8c-.3.2-3.3-2.11-3.7-3.2z" fill="#d2232a"/><path d="M75.1 24.61c-.9-.8-1.7-1.6-2.6-2.3a14.17 14.17 0 0 0-3.3-1.8s-2-.7-.9.9a18.9 18.9 0 0 0 3.1 2.8c-.8.3-2.6.5-3.9.8a46 46 0 0 0-6.9-6.4c.5.1.6.1.8 0 0-.5-1-1.2-2.3-1.8l-.5-.2h-.1c-.1-.1-.2-.1-.4-.2H58l-.4-.2h-.1l-.4-.2a5.9 5.9 0 0 0-1.4-.2l.1.1-.1-.1h.1a2.19 2.19 0 0 0-.5-.3 5.13 5.13 0 0 0-1-.4 23.55 23.55 0 0 0-2.5-.1h-1.1l.2.1h-.3c.2 0 .4.1.7.1.6.2 1.7.5 2.6.7 5.3 1.9 10.1 6.1 13.8 11.7h.2a26 26 0 0 0 6.4-1.8c.9-.6.8-1.2.8-1.2z" fill="#fff"/><path d="M67.6 27.51c-5.8-8.5-11-11.1-15.9-12.3.1 0 .2.1.4.1l-.7-.2c-.1 0-.1 0-.2-.1l.4.1-.5-.1H51l-.3-.1a6.91 6.91 0 0 0 2.8 1.7c-.1.4 0 1.3 1.5 2.4a2.51 2.51 0 0 0 .7.4c2.3 1.2 2.8.3 2.9-.1a22.11 22.11 0 0 1 3.6 3.3 26.37 26.37 0 0 1 2.3 2.9c-1.4.2-3.3.3-5.2.5a4.14 4.14 0 0 0-2.8-3.8c-2.2-.8-3 1.8-2 3.7-1.8-1-3.9-.1-4.2 2.7a108.48 108.48 0 0 0 17.3-1.1" fill="#d2232a"/><path d="M50.4 45.41a115.6 115.6 0 0 1-7.9-9c1.7-11 4.8-19.5 8.3-21.5-.1 2.6-.3 15.3-.4 30.5M8.4 23.81l.2.1a1 1 0 0 0 .5 1.5l2.9 1.4c1.3.7 2.3 2.2 1.2 4.5-1 2-2.7 2.5-4.2 1.8l-3.1-1.6c-.7-.3-.9-.2-1.3.5l-.2-.1 1.4-2.8.2.1v.1c-.3.6-.3.9.4 1.2l3 1.5a2.41 2.41 0 0 0 3.5-1.3 2.42 2.42 0 0 0-1.1-3.6l-2.5-1.2c-1-.5-1.3-.4-1.8.4l-.2-.1zm12.3-3.5l-8.9.6 3.9 3.3c.7.6.9.5 1.6-.3l.2.1-1.8 2.1-.2-.1c.5-.6.4-.9 0-1.3l-4.5-3.8a2.36 2.36 0 0 0-.9.6l-.1-.1L11.2 20l8.1-.5-3.6-3.1c-.6-.5-.8-.4-1.4.3l-.2-.1 1.8-2.1.2.1c-.6.7-.6.9-.2 1.2l5.1 4.3zm4.3-3.8l-2.2 1.9-.1-.3c.5-.5.5-.7 0-1.4l-3.2-3.9c-.4-.5-.7-.5-1.2-.1l-.1-.2 2.2-1.9.1.2c-.6.5-.7.8-.2 1.4l3.2 3.9c.4.5.7.6 1.4.1zm4.4-2.8l-5.5-4.3c-.6-.5-.8-.6-1.5-.2L22.3 9l2.8-1.7.1.2c-.9.6-1 .9-.6 1.3l4.5 3.5-.9-5.2c-.1-.4-.1-.6-.2-.7 0-.3-.3-.2-1 .2l-.1-.2L29.3 5l.1.2c-.5.3-.7.7-.5 1.5l1.1 6.7zm8.7-7l-.2.1c-.4-.8-.6-.8-1.1-.6l-1.8.6.8 2.4c.2.5.4.6.8.4L38.3 9c.8-.3.9-.7.9-1.7l.2-.1.4 1.7-6 2.1-.1-.2.3-.1c.9-.3 1-.6.7-1.3l-1.6-4.8c-.1-.6-.4-.8-1.1-.5l-.2.1-.1-.2L37 2.11l.6 1.5-.2.1c-.5-.9-.8-1-1.2-.9l-2.4.8 1 2.8 2-.7c.4-.1.5-.4.4-1.1l.2-.1zm4.6-5.8l.6-.1c1.8-.2 2.4.6 2.5 1.7.2 1.4-.6 2.1-1.9 2.2l-.7.1zM43.1 5h.6l.8-.1c.3.2.8.5 1.3.9l.9.7a4 4 0 0 0 3.8 1v-.2a4 4 0 0 1-2.5-.9l-1-.8a11.24 11.24 0 0 0-1.5-1.1 2 2 0 0 0 1.3-2.1c-.1-1.2-1.2-2-3.4-1.7-.8.1-1 .1-1.5.2a10.4 10.4 0 0 1-1.5.2v.2h.3c.7-.1.9.1 1 .8l.6 5c.1.8-.1 1-.8 1.1h-.2v.2l3.3-.4v-.2h-.3c-.7.1-1-.1-1-.8zm9.2.7a1.94 1.94 0 0 0 1.9 1.8 1.38 1.38 0 0 0 1.7-1.3c.1-1.7-3.6-2.5-3.5-4.6A1.89 1.89 0 0 1 54.6 0c1 .1 1.2.4 1.6.4.1 0 .1 0 .2-.1h.2l.1 1.5h-.2A2.25 2.25 0 0 0 54.7.21c-.8-.1-1.4.3-1.4 1-.1 1.9 3.7 2.7 3.5 4.9a2.11 2.11 0 0 1-2.6 1.8 4.93 4.93 0 0 1-1.6-.5c-.1 0-.2 0-.2.1h-.2l-.1-1.8zm9.1 3.2l-2.8-.6v-.2c.7.1.9 0 1.1-.8l1.1-5c.1-.6 0-.9-.7-1v-.2l2.9.5v.2c-.7-.2-1-.1-1.2.7l-1.1 5c-.1.7 0 1 .8 1.1zm6 .8c-.2.6-.1.9.6 1.2l.4.2-.1.2-3.5-1.4.1-.2.4.2c.7.3 1 .1 1.2-.5l2.2-5.5-2-.8c-.4-.2-.7 0-1.3.9l-.2-.1.9-1.7.2.1c0 .1 0 .1.1.2l.2.1 5.3 2.1c.2.1.3.1.4 0l.2.1-.5 1.81-.2-.1c.2-1 .1-1.4-.3-1.6l-1.9-.8zm12.1.8c.7-.3.6-.6 0-1.1l.1-.2 2.2 1.5-.1.2a1.67 1.67 0 0 0-1.8 0l-3.5 1.7-1 1.5c-.4.5-.3.9.3 1.3l.1.1-.1.2-2.7-1.79.1-.2.2.1c.6.4.9.3 1.3-.2l.9-1.4.1-3.9c0-1.1-.1-1.4-.7-1.8l.1-.3L77.6 8l-.1.1c-.8-.5-.9-.4-1 .3v3.5zm9.8 14.2c-1.3 1-3.3 1.3-4.4-.2a3.51 3.51 0 0 1 .9-5 3.1 3.1 0 0 1 4.5.3c1.2 1.51.8 3.61-1 4.91zm1 .7a3.94 3.94 0 0 0 .4-5.6 4.05 4.05 0 0 0-5.9-1c-1.8 1.4-1.8 3.8-.4 5.7a4.2 4.2 0 0 0 5.9.91zm2.5 7.5l-.1-.2a.82.82 0 0 0 .5-1.2l-.9-2-2.3 1.11c-.6.3-.8.5-.4 1.3l-.3.2-1.2-2.6.2-.1c.4.6.6.7 1.4.3l4.2-2c.7-.3 1-.5.6-1.3l.2-.1 2.3 4.8-1.3.6-.1-.2c.6-.3.8-.6.5-1.3l-1-2-2.5 1.2 1 2.1c.2.4.5.5 1 .3l.1.2-1.9.9zM9.6 79.61l4.3-7.9-5.8 3.7c-.7.4-.5 1-.1 1.6l-.2.1-1.9-2.6.2-.2c.7.9.9.9 2.1.1l5-3.2c.8-.5 1.1-.7.5-1.5l.2-.2 1.3 1.9-4 7.5 8.3-1.6 1.3 1.8-.2.2c-.5-.6-.7-.8-1.1-.5l-5.3 4.5c-1.1.9-1 1-.4 1.9l-.2.2-2.3-3.2.2-.2c.4.6 1 1 1.6.5l5.2-4.4-8.8 1.7zm15 8.3l-2.1-1.6 3.1-2.1zm-.1.7l-.8 2.8a1.42 1.42 0 0 1-.2.6c-.3.3-.6.2-1.3-.3l-.3-.2-.2.2 3.4 2.5.2-.2c-.6-.5-.8-.8-.5-1.6l2.4-8.7-1.2-.8-.1.4-6.7 4.5c-1.2.8-1.4.8-2.2.2l-.2.2 2.8 2.1.2-.2-.2-.1c-.6-.6-.9-.9-.6-1.3.1-.2.6-.4.8-.6l2.1-1.4zm9.7-.2a6.37 6.37 0 0 1 .7.2c2.2.8 2.4 2 2 3.4-.6 1.7-1.9 2-3.5 1.5a9.44 9.44 0 0 0-.9-.3zm-1.8 5a4.88 4.88 0 0 0 .7.3l1 .3a8.84 8.84 0 0 1 1 1.8l.6 1.3c.8 1.7 1.3 2.5 3.8 3.3l.1-.3a4.37 4.37 0 0 1-2.3-2.5l-.6-1.5A13.39 13.39 0 0 0 35.6 94a2.55 2.55 0 0 0 2.7-1.7c.5-1.5-.3-3-2.9-3.9l-1.8-.6a12.51 12.51 0 0 1-1.8-.6l-.1.3.3.1c.8.3 1 .6.7 1.5l-2.1 6.1c-.3 1-.7 1.1-1.6.8l-.2-.1-.1.3 4.1 1.4.1-.3-.3-.1c-.8-.3-1.1-.6-.8-1.5l.6-2.3zm17.3-.3c.6-.8.3-1.1-.7-1.2v-.3l3.4.3v.3a2.33 2.33 0 0 0-2 1l-2.9 4.1-.2 2.3c-.1.8.2 1.2 1.1 1.2h.2v.3l-4.2-.4v-.3h.3c.9.1 1.2-.2 1.3-1l.2-2.1-2.3-4.5c-.6-1.2-1-1.5-2-1.6v-.3l4 .3v.3c-1.2-.1-1.3.2-.9.9l2.1 4zm12.6 6.8L55.6 101v-.3l.5-.1c.7-.1.9-.4.8-1.2l-1.1-6.7c-.1-.8-.4-1.1-1.4-.9h-.2v-.3l4.4-.8v.3l-.6.3c-1 .2-1.2.3-1.1 1.2l1.2 6.9c.1.4.3.5.7.5l2.2-.4c.9-.2 1.1-.5 1.8-2h.3zm7.3-7.6l-2.4 1-.2-3.8zm.5.5l2 2.2a2.18 2.18 0 0 1 .4.5c.2.4-.1.6-.9.9l-.4.2.1.3 3.9-1.6L75 95c-.7.3-1.1.3-1.6-.4L67.2 88l-1.2.5.3.3.4 8.1c.1 1.4 0 1.6-.9 2l.1.3 3.2-1.4-.1-.3-.2.1c-.8.3-1.2.3-1.4 0a3.08 3.08 0 0 1-.1-1l-.1-2.6 2.9-1.2zm16.4-5.9l-11.3-1.3 4.2 5.1c.7.8 1 .9 2 0l.2.2-2.8 2.2-.2-.2c.7-.6.8-1 .3-1.6l-4.8-5.8a2.08 2.08 0 0 0-1.2.5l-.2-.2 1.8-1.5 10.3 1.2-3.9-4.7c-.6-.7-.9-.7-1.9.1v-.3l2.7-2.3.2.2c-.9.7-.9 1-.6 1.5l5.4 6.6-.2.3zm-2.2-11.8c.1-.2.3-.5.6-1.1 1.2-1.8 2.2-2.4 3.2-2.6a4.1 4.1 0 0 1 3.4.8 5.18 5.18 0 0 1 2.1 2.9c.3 1.3.1 2.2-1 3.9-.7 1-.9.9-1.4.6zm5.9 5.4c.7.5.7.9.3 1.6l-.1.2.2.2 2.6-4.1a5.27 5.27 0 0 0-1.2-7.5c-2.1-1.4-4.8-1-7 2.4l-1.3 2.2s-.8 1.4-1.1 1.9l.2.2.2-.3c.5-.8.8-.8 1.7-.3l5.5 3.5zm-88-33.3v6.5c0 .4.1.4.5.4h.6v.2H.5v-.2h.6c.4 0 .4-.1.4-.4v-5.6A11 11 0 0 1 .1 49l-.1-.2a6 6 0 0 0 1.8-1.7h.4zm6.5 5.6a1.5 1.5 0 0 1-1.5 1.6 1.53 1.53 0 0 1-1.5-1.7A2 2 0 0 1 6.8 51c1.4.51 1.9 1 1.9 1.81zm.5-4a1.83 1.83 0 0 0-2-1.6 1.91 1.91 0 0 0-2 1.8c0 .8.5 1.3 1.5 1.8-1.1.4-1.6 1.1-1.6 1.8a2.11 2.11 0 0 0 2.2 1.9 2.08 2.08 0 0 0 2.2-2.1c0-.9-.5-1.5-1.7-2a1.76 1.76 0 0 0 1.4-1.6zm-.7 0a1.92 1.92 0 0 1-.9 1.6c-1.5-.6-1.8-1.1-1.8-1.7a1.35 1.35 0 0 1 1.4-1.3 1.29 1.29 0 0 1 1.3 1.4zM92.6 48h2.7c.2 0 .3 0 .3-.1h.2l-.1.9h-2.8l-.1 2a2.38 2.38 0 0 1 1.2-.3 2.33 2.33 0 0 1 2.3 2.3 2.42 2.42 0 0 1-2.6 2.4c-.9 0-1.6-.3-1.6-.7a.43.43 0 0 1 .4-.4c.6 0 .8.8 1.5.8a1.79 1.79 0 0 0 1.5-1.9 1.71 1.71 0 0 0-1.7-1.8 1.85 1.85 0 0 0-1.2.5l-.1-.1zm8.6 5c0 1.3-.5 2-1.3 2s-1.5-.6-1.5-2.5a1.29 1.29 0 0 1 .1-.7 2.33 2.33 0 0 1 1.5-.7c.6.01 1.2.71 1.2 1.9zm0-5.2c-2.3.7-3.8 2.3-3.8 4.4 0 1.7 1 2.9 2.3 2.9a2.24 2.24 0 0 0 2.2-2.3 2 2 0 0 0-2-2.1 2.29 2.29 0 0 0-1.6.7 4.3 4.3 0 0 1 2.9-3.5z"/></svg>